<?xml version="1.0" encoding="UTF-8"?>
<svg id="Layer_1" data-name="Layer 1" xmlns="http://www.w3.org/2000/svg" viewBox="0 0 881.66 435.03">
  <g>
    <path d="m156.55,145.44c-.99-.12-1-.13-1.63.82-.81,1.22-1.86,2.22-2.91,3.21-.06.05-.14.09-.22.12-.86.36-.85.35-.22,1.08.56.64,1.2,1.21,1.69,1.92.21.31.55.34.91.29,1.88-.22,3.71-.72,5.59-.96,4.21-.53,8.42-1.19,12.69-.98,1.19.06,2.36.34,3.44.87,1.78.88,2.45,2.44,1.79,4.31-1.03,2.93-2.93,5.17-5.57,6.76-3.86,2.33-8.03,3.66-12.51,4.23-5.57.71-11.15.82-16.74.69-2.48-.06-4.96-.31-7.43-.58-3.36-.37-6.7-.88-10-1.58-4.86-1.04-9.67-2.27-14.47-3.54-1.54-.41-3.1-.74-4.7-.84-.23-.02-.52-.1-.64.14-.11.21.15.38.27.54.77,1.07,1.63,2.08,2.2,3.29.26.56.21.66-.41.69-1.87.08-3.67-.33-5.48-.75-2.36-.55-4.68-1.24-6.85-2.35-.72-.37-1.42-.78-1.99-1.37-.41-.43-.52-.9-.31-1.47.31-.85.9-1.49,1.59-2.04,1.8-1.46,3.94-2.02,6.16-2.4,3.04-.53,6.06-.26,9.08.18,3.03.44,6.04.95,9.03,1.6.33.07.66.13.9-.25,1.41-2.24,3.03-4.33,4.56-6.49.24-.34.49-.67-.1-.96-.32-.15-.49-.15-.66.18-.14.26-.34.48-.51.73-.02-.04-.06-.08-.05-.1.55-1.1.54-1.09-.31-1.93-.75-.75-1.48-1.53-2.03-2.46-.56-.96-.73-.99-1.71-.43-.14.08-.29.17-.49.17.3-.2.58-.44.91-.59.45-.2.45-.46.26-.85-.36-.79-.75-1.57-.77-2.48-.03-1.46.34-2.77,1.32-3.88.87-.99,1.71-1.99,2.54-3.01.35-.43.6-.95.57-1.53-.09-1.49.43-2.78,1.45-3.77,1.86-1.81,1.51-3.84.75-5.92-.67-1.85-2.02-3.23-3.29-4.67-1.65-1.86-3.4-3.67-4.36-6.03-.9-2.22-1.47-4.54-1.82-6.91-.5-3.38-.52-6.76-.03-10.14.12-.87.36-1.71.78-2.49.71-1.31,1.71-1.63,3.04-.97,1.62.81,2.81,2.11,3.98,3.44,1.68,1.91,3.15,3.98,4.67,6,.29.39.59.79.94,1.13,2.06,2.04,3.22,4.58,4.07,7.29.34,1.08.65,2.16,1.15,3.18.44.89.98,1.63,2.16,1.34.32-.08.4.13.43.39.11.94.1,1.87-.54,2.62-.86,1.01-.99,2.15-1.09,3.43-.41,5.25-.96,10.5-3.14,15.4-.69,1.55-1.64,2.92-2.66,4.27-1.48,1.96-1.99,4.22-1.78,6.64.1,1.13.67,2.03,1.82,2.4,2.51.82,5.02,1.08,7.49-.14.41-.2.8-.16,1.14.08.5.36,1.06.55,1.66.61,1.9.16,3.78.15,5.61-.47,1.3-.44,1.89-1.3,1.92-2.7.04-1.63-.04-3.24-.76-4.75-.24-.5-.46-1.01-.82-1.44-2.52-2.99-3.88-6.52-4.69-10.3-.7-3.26-1.08-6.56-1.26-9.89-.06-1.08-.26-2.09-1.02-2.95-.71-.81-.69-1.84-.65-2.86.01-.27.16-.33.38-.28,1.06.26,1.63-.36,2.1-1.16.46-.78.7-1.64.96-2.5.5-1.65,1.09-3.27,1.89-4.81.41-.8.85-1.59,1.46-2.24,2.07-2.2,3.7-4.74,5.6-7.05,1.29-1.56,2.59-3.12,4.3-4.25.26-.17.55-.32.84-.46,1.3-.59,2.3-.23,2.97,1.04.64,1.22.76,2.57.92,3.9.58,4.87-.1,9.61-1.51,14.27-.6,2-1.71,3.71-3.06,5.27-1.17,1.35-2.36,2.69-3.52,4.06-1.46,1.73-2.19,3.72-2.14,6,.01.61.19,1.13.54,1.6.37.5.76.98,1.14,1.46.63.79,1.1,1.68,1.07,2.68-.04,1.51.79,2.54,1.69,3.57.65.75,1.37,1.45,1.91,2.3,1.08,1.7.97,3.43.24,5.2-.39.94-.38.94.27,1.6Zm-6.74-27.63c.27-.17.34-.4.42-.62.49-1.25.95-2.5,1.61-3.68,1.04-1.83,2.4-3.41,3.71-5.03.97-1.21,1.76-2.52,2.01-4.08.45-2.83.07-5.61-.58-8.37-.09-.4-.31-.48-.64-.27-.34.22-.69.43-1,.68-1.5,1.16-2.72,2.58-3.72,4.17-2.56,4.09-3.35,8.56-2.73,13.31.17,1.31.31,2.63.93,3.89Zm-31.75-16.5c.03,1.5-.06,2.56.23,3.61.48,1.79,1.58,3.2,2.75,4.55,1.88,2.18,3.39,4.58,4.36,7.31.07.2.16.4.27.58.08.14.12.35.34.32.23-.03.2-.23.24-.39.1-.48.22-.95.31-1.43.89-4.69.69-9.25-1.48-13.6-1.32-2.65-3.17-4.83-5.61-6.51-.35-.24-.54-.33-.67.23-.45,1.89-.84,3.79-.73,5.32Zm31.42,28.41c-.07-1.19-.11-2.09-.8-2.79-.24-.24-.5-.53-.87-.43-.4.11-.7.4-.78.85-.17.95-.2,1.9.09,2.84.13.41.26.81.56,1.14.52.58,1.15.49,1.45-.22.23-.53.37-1.09.34-1.39Zm-23.15-.03c0,.3-.02.88.25,1.41.37.74,1.08.8,1.54.12.78-1.14.96-2.39.63-3.72-.12-.5-.35-1-.92-1-.52,0-.86.4-1.09.87-.32.65-.43,1.33-.42,2.32Zm36.7,27.07c-1.79.35-3.57.71-5.36,1.06-.23.05-.59,0-.53.38.05.31.31.52.67.43,1.78-.46,3.59-.86,5.22-1.87Zm-24.81-6.55c-.04-.2-.17-.29-.36-.3-.24,0-.26.17-.26.35,0,.21.12.33.32.3.17-.03.3-.15.3-.35Z" fill="#fff" stroke-width="0"/>
    <path d="m128.82,207.18c-4.39-.17-8.94-.31-13.42-1.16-1.19-.23-2.36-.51-3.46-1.05-.71-.35-.88-.67-.67-1.43.21-.79.3-1.59.28-2.4-.25-7.3-.46-14.59-1.02-21.87-.29-3.76-.57-7.53-1.51-11.21-.11-.45.13-.51.46-.55,1.22-.12,2.42.02,3.63.14,2.85.31,5.64.98,8.46,1.5,5.39,1,10.8,1.88,16.27,2.21,6.4.38,12.78.3,19.11-.96,2.1-.42,4.18-.95,6.26-1.46.79-.2.8-.17.8.65,0,3.36.38,6.69.68,10.02.23,2.55.6,5.08.95,7.62.47,3.38,1.16,6.72,2.26,9.96.59,1.73.18,2.48-1.34,3.27-3.03,1.57-6.27,2.59-9.54,3.51-3.57,1-7.22,1.53-10.89,2.02-5.7.76-11.41,1.13-17.31,1.19Z" fill="#fff" stroke-width="0"/>
    <path d="m141.78,149.56c-1.46-.36-2.8-1.22-4.36-1.18-1.54.04-2.97.66-4.54,1.03.27-.42.62-.54.96-.65.62-.21,1.24-.45,1.88-.59,1.04-.23,1.4-1,1.61-1.92.32-1.45-.02-2.64-1.26-3.54-.7-.51-1.27-1.18-2.02-1.68.26-.21.46-.05.65.03.62.27,1.23.57,1.85.85.7.31,1.37.35,2.06-.08.79-.5,1.69-.78,2.57-1.11.13-.05.28-.05.45-.08-.07.33-.32.42-.51.57-1.32,1.06-2.57,2.18-2.92,3.97,0,.04-.02.08-.03.12-.32,1.75-.15,2.11,1.39,2.91.77.4,1.55.78,2.24,1.34Z" fill="#fff" stroke-width="0"/>
    <path d="m120.51,134.75c.53.08,1.05.21,1.5.51-.56,0-1.03-.25-1.5-.51Z" fill="#fff" stroke-width="0"/>
    <path d="m117.1,138.3h2.12v.11c-.71-.03-1.42-.06-2.12-.1,0,0,0,0,0-.01Z" fill="#fff" stroke-width="0"/>
    <path d="m158.43,138.32h-1.94s0-.04,0-.07h1.94s0,.04,0,.07Z" fill="#fff" stroke-width="0"/>
    <path d="m148.97,129.45s0,.08,0,.13c-.02.69-.36,1.32-.73,1.26-.59-.09-.57-.66-.69-1.09-.18-.63-.11-1.26.04-1.88.06-.24.19-.44.45-.47.26-.04.37.18.47.35.31.52.44,1.1.45,1.7Z" fill="#fff" stroke-width="0"/>
    <path d="m128.37,128.95c.02.58-.21,1.08-.46,1.58-.12.23-.28.28-.51.3-.27.02-.39-.14-.46-.36-.3-.94-.16-1.85.24-2.73.1-.22.33-.33.58-.32.27.02.42.21.47.46.07.35.1.71.14,1.07Z" fill="#fff" stroke-width="0"/>
  </g>
  <g>
    <path d="m199.78,254.48c1.95.83,3.34-.23,4.52-1.88.36-.5.77-1.06,1.51-.85.72.2.87.86.89,1.5.06,2.23,1.16,3.58,3.31,4.13.59.15,1.22.41,1.23,1.2.01.67-.49,1-1.01,1.19-2.07.75-3.06,2.16-2.98,4.4.02.57.07,1.33-.68,1.62-.81.32-1.36-.25-1.77-.77-1.28-1.66-2.83-2.01-4.75-1.27-.61.24-1.4.48-1.92-.2-.45-.59-.11-1.25.22-1.75,1.19-1.78,1.11-3.43-.24-5.1-.36-.45-.83-1.02-.43-1.7.45-.77,1.22-.44,2.09-.49Z" fill="#fff" stroke-width="0"/>
    <path d="m71.25,45.21c-1.97-.8-3.45.22-4.82,2.01-1,1.31-2,1.05-2.16-.59-.25-2.39-1.37-3.71-3.62-4.41-1.45-.45-1.48-1.6-.12-2.17,2.3-.96,3.18-2.57,3.2-4.97.01-1.42,1.03-1.76,1.91-.75,1.61,1.85,3.35,2.35,5.69,1.57,1.38-.46,2.12.4,1.31,1.72-1.26,2.05-1.05,3.8.29,5.73.91,1.31.39,1.91-1.67,1.85Z" fill="#fff" stroke-width="0"/>
    <path d="m200.13,31.02c-.07.45-.06.83-.19,1.14-.71,1.71-.31,3.07,1.1,4.25.54.46,1.31,1.01,1,1.91-.31.9-1.25.89-1.96.83-2.07-.16-3.19.88-3.9,2.69-.21.53-.45,1.23-1.25,1.25-.92.02-1.16-.72-1.34-1.37-.54-1.97-1.73-3.06-3.8-3.18-.67-.04-1.48-.06-1.73-.89-.25-.84.44-1.3.99-1.66,1.67-1.07,2.23-2.5,1.79-4.44-.15-.68-.43-1.6.43-2.09.74-.42,1.39.13,1.86.56,1.65,1.48,3.23,1.09,4.92.11,1.07-.63,2.03-.74,2.06.88Z" fill="#fff" stroke-width="0"/>
    <path d="m70.77,268.61c.07-.45.05-.82.19-1.13.75-1.74.21-3.06-1.15-4.24-.55-.47-1.27-1.03-.95-1.92.3-.81,1.16-.8,1.79-.75,2.13.15,3.34-.89,4.09-2.76.22-.55.51-1.2,1.29-1.21.81-.01,1.08.64,1.22,1.23.51,2.21,1.9,3.25,4.1,3.36.62.03,1.28.15,1.48.91.2.77-.38,1.19-.88,1.51-1.79,1.16-2.41,2.72-1.88,4.8.15.58.25,1.29-.33,1.75-.63.5-1.24.1-1.69-.29-1.71-1.46-3.39-1.5-5.27-.28-1.05.68-2.04.63-2-.97Z" fill="#fff" stroke-width="0"/>
    <path d="m3.28,158.94c.62-2.02-.87-2.73-2.11-3.6-.55-.39-1.28-.68-1.16-1.56.12-.9.91-1.02,1.56-1.11,2.2-.3,3.15-1.69,3.5-3.73.11-.63.35-1.26,1.11-1.33.75-.07,1.23.49,1.34,1.09.52,2.81,2.7,2.48,4.65,2.55.59.02,1.26-.45,1.63.34.31.67-.1,1.23-.54,1.68-1.47,1.5-1.83,3.13-.81,5.05.27.51.57,1.2.03,1.76-.6.61-1.29.28-1.93.03-1.44-.55-2.82-1.11-4.21.27-.63.62-1.37,1.66-2.47,1.04-.97-.55-.28-1.68-.58-2.48Z" fill="#fff" stroke-width="0"/>
    <path d="m267.56,140.83c-.53,1.74.67,2.56,1.95,3.4.61.4,1.45.72,1.36,1.67-.1,1.04-1.05,1.08-1.74,1.18-2.06.29-2.92,1.6-3.29,3.47-.13.67-.28,1.44-1.17,1.52-.77.07-1.09-.59-1.39-1.1-.71-1.24-1.71-2.32-1.15-4.08.41-1.27-.25-2.54-1.72-2.9-2.05-.51-1.96-2.33-2.19-3.76-.17-1.05.96-1.14,1.66-.78,2.11,1.09,3.94.92,5.59-.86.39-.42.95-.71,1.5-.35.96.63.4,1.66.58,2.6Z" fill="#fff" stroke-width="0"/>
    <path d="m43.68,74.88c.8.13,1.06.68,1.32,1.14.75,1.34,1.74,2.06,3.36,1.81.63-.1,1.46-.3,1.83.54.31.71-.26,1.22-.65,1.63-1.1,1.14-1.32,2.34-.6,3.76.28.54.58,1.18.09,1.75-.52.6-1.2.32-1.72.03-1.59-.89-2.87-.43-4.09.73-.38.36-.83.81-1.45.51-.63-.31-.57-.95-.49-1.47.31-1.82-.4-3.01-1.98-3.9-1.2-.68-1.5-1.73.14-2.09,1.95-.43,3.01-1.43,3.32-3.38.09-.55.39-1.05.93-1.06Z" fill="#fff" stroke-width="0"/>
    <path d="m232.51,219.47c-.02.78-.74.91-1.3,1.01-1.7.3-2.7,1.17-2.98,2.93-.09.55-.22,1.32-1.03,1.38-.68.05-.97-.52-1.21-.99-.79-1.55-1.98-2.18-3.71-1.91-.57.09-1.32.21-1.62-.56-.24-.62.22-1.07.59-1.45,1.23-1.23,1.41-2.59.65-4.13-.24-.49-.48-1.07-.04-1.57.53-.6,1.2-.3,1.72-.01,1.6.88,2.86.38,4.11-.73,1.03-.91,2.05-1.01,1.9.76-.16,1.97.44,3.35,2.2,4.23.35.18.7.47.72,1.04Z" fill="#fff" stroke-width="0"/>
    <path d="m152.21,40.13c-1.38-.53-2.24.33-3.08,1.35-.41.5-.83,1.3-1.65.98-.64-.25-.73-1-.75-1.62-.06-1.62-.85-2.53-2.4-2.95-.55-.15-1.28-.34-1.37-1.11-.1-.82.62-1.06,1.15-1.28,1.63-.66,2.32-1.83,2.2-3.57-.04-.54.02-1.18.67-1.4.61-.21,1.07.18,1.43.62,1.09,1.32,2.35,1.83,4.02,1.12.48-.2,1.13-.35,1.57.13.53.58.14,1.19-.15,1.73-.65,1.22-1.04,2.38-.01,3.64.46.56,1.11,1.3.6,2.06-.5.74-1.41.22-2.22.29Z" fill="#fff" stroke-width="0"/>
    <path d="m127.93,263.12c-.12.65-.67.88-1.16,1.09-1.47.64-2.37,1.6-2.2,3.34.06.59.08,1.35-.66,1.61-.71.25-1.22-.28-1.58-.76-1.05-1.38-2.33-1.55-3.87-.99-.5.18-1.15.36-1.57-.11-.5-.55-.23-1.18.12-1.72.9-1.38.87-2.68-.17-4.01-.35-.45-.85-1.04-.42-1.7.36-.56,1.02-.45,1.52-.33,1.77.42,3.06-.1,4.08-1.63.6-.9,1.65-1.33,1.88.12.35,2.16,1.21,3.59,3.39,4.11.41.1.69.46.63.97Z" fill="#fff" stroke-width="0"/>
    <path d="m244.26,101.63c-.98,1.82-.12,3.27,1.35,4.7.82.8.39,1.66-.76,1.63-2.06-.06-3.33.77-4.14,2.69-.51,1.19-1.47,1.07-1.88-.14-.62-1.82-1.6-2.89-3.65-3.03-1.34-.09-1.73-1.11-.55-1.92,1.69-1.15,2.04-2.54,1.67-4.44-.26-1.38.51-1.92,1.67-1.06,1.58,1.18,3.04,1.27,4.72.23,1.1-.68,1.68-.17,1.56,1.34Z" fill="#fff" stroke-width="0"/>
    <path d="m26.65,198.03c.89-1.65.3-3.13-1.24-4.51-.95-.85-.62-1.79.69-1.76,2.01.05,3.2-.82,4.02-2.6.64-1.38,1.55-1.14,1.97.16.61,1.9,1.81,2.73,3.75,2.93,1.23.13,1.55,1.06.47,1.84-1.58,1.15-2.23,2.45-1.75,4.44.31,1.26-.38,2.06-1.62,1.14-1.59-1.18-3.01-1.26-4.74-.28-1.19.68-1.64.25-1.55-1.35Z" fill="#fff" stroke-width="0"/>
    <path d="m147.02,281.03c-1.04,1.44-.48,2.7.59,3.99.58.69.1,1.25-.69,1.19-1.52-.11-2.62.31-3.4,1.75-.49.9-1.18.59-1.42-.32-.35-1.3-.95-2.21-2.41-2.47-1.29-.23-1.26-1.03-.28-1.65,1.12-.72,1.61-1.58,1.45-2.93-.13-1.13.41-1.71,1.43-.86,1.1.91,2.16,1.05,3.44.47.62-.28,1.26-.23,1.29.86Z" fill="#fff" stroke-width="0"/>
    <path d="m243.92,78.22c.37-1.09-.42-1.69-1.19-2.32-1.06-.88-.87-1.62.44-1.75,1.44-.13,2-.96,2.45-2.14.44-1.16,1.18-1.2,1.69-.09.61,1.33,1.54,1.79,2.93,1.8,1.16.01,1.3.76.54,1.49-1,.97-1.34,1.94-.87,3.34.39,1.14-.22,1.61-1.34,1.04-.98-.5-1.83-.69-2.9-.03-1.7,1.05-1.86.88-1.77-1.34Z" fill="#fff" stroke-width="0"/>
    <path d="m130.72,46c-.65,1.31-.08,2.21.85,3.12.82.8.72,1.55-.57,1.6-1.41.05-2.24.69-2.81,1.98-.41.95-1.13,1.04-1.56-.07-.49-1.25-1.16-2.08-2.67-2.15-1.2-.05-1.43-.88-.47-1.61,1.18-.88,1.35-1.94,1.12-3.28-.18-1.07.41-1.5,1.33-.87,1.15.79,2.17.86,3.41.16,1.1-.62,1.49.01,1.36,1.11Z" fill="#fff" stroke-width="0"/>
    <path d="m140.17,253.72c.63-1.22.18-2.18-.79-3.09-.77-.72-1.01-1.47.44-1.61,1.35-.12,2.28-.64,2.86-1.99.53-1.24,1.27-.89,1.65.18.44,1.26,1.19,1.89,2.56,1.99,1.17.08,1.5.82.5,1.61-1.06.84-1.39,1.78-1.14,3.08.25,1.31-.35,1.8-1.47.98-1.12-.81-2.08-.73-3.23-.06-1.03.6-1.57.17-1.38-1.11Z" fill="#fff" stroke-width="0"/>
    <path d="m124.9,19.66c-1.08-.05-1.17-.6-.84-1.28.62-1.29.36-2.34-.58-3.39-.87-.97-.39-1.57.77-1.48,1.42.11,2.3-.46,3.02-1.65.59-.97,1.27-.81,1.53.28.33,1.36,1.04,2.12,2.45,2.42,1.28.28,1.16,1.08.2,1.68-1.14.71-1.6,1.62-1.41,2.95.09.62-.09,1.59-.91,1.06-1.43-.91-2.73-1.6-4.22-.59Z" fill="#fff" stroke-width="0"/>
    <path d="m257.31,212.98c-1.24-.63-2.23-.16-3.18.89-.86.94-1.59.52-1.56-.63.03-1.41-.6-2.16-1.77-2.72-1.01-.48-1.31-1.21-.05-1.69,1.33-.5,1.95-1.32,2.12-2.71.17-1.35.98-1.26,1.63-.37.81,1.1,1.77,1.35,3.05,1.12,1.21-.23,1.62.4.94,1.41-.75,1.12-.77,2.14-.12,3.29.56,1,.34,1.61-1.06,1.42Z" fill="#fff" stroke-width="0"/>
    <path d="m215.82,91.81c-.08-.32-.12-.45-.15-.59-.5-2.33-.49-2.39,1.88-1.94,1.03.2,1.53-.47,2.17-.94,1.03-.75,1.63-.46,1.52.75-.13,1.46.45,2.31,1.66,3.01.93.54.86,1.31-.23,1.58-1.38.34-2.08,1.1-2.4,2.48-.28,1.19-1,1.25-1.69.23-.6-.91-1.22-1.61-2.49-1.45-1.74.22-2.01-.48-1.01-1.86.32-.43.54-.94.73-1.29Z" fill="#fff" stroke-width="0"/>
    <path d="m46.45,108.84c-.97-.28-1.58.35-2.16,1.11-1.01,1.31-1.68,1.05-1.9-.51-.17-1.19-.83-1.83-1.92-2.18-1.23-.4-1.54-1.13-.23-1.76,1.25-.61,1.66-1.5,1.72-2.8.06-1.23.72-1.5,1.58-.6.93.99,1.94,1.18,3.18.77,1.33-.43,1.5.28,1.08,1.3-.37.91-.75,1.68-.12,2.72,1.13,1.89,1.03,1.96-1.23,1.95Z" fill="#fff" stroke-width="0"/>
    <path d="m26.99,221.28c-.38.98.11,1.66.89,2.28,1.16.93,1.55,1.8-.42,2.05-1.12.15-1.71.71-2.06,1.75-.49,1.48-1.27,1.67-1.97.17-.56-1.21-1.44-1.52-2.65-1.53-1.24-.02-1.51-.69-.64-1.57.91-.92,1.31-1.82.85-3.16-.42-1.23.12-1.78,1.38-1.12,1,.52,1.91.67,2.9-.08.39-.29.85-.87,1.45-.4.52.4.34,1.01.27,1.61Z" fill="#fff" stroke-width="0"/>
    <path d="m13.52,86.7c1.31.69,2.28.15,3.24-.87.86-.91,1.57-.52,1.57.65,0,1.39.63,2.14,1.8,2.73,1.32.66,1.02,1.36-.18,1.76-1.21.4-1.73,1.23-1.88,2.43-.17,1.33-.83,1.65-1.68.53-.83-1.09-1.77-1.36-3.06-1.08-.98.22-1.63-.25-1.02-1.24.78-1.26.88-2.36.14-3.67-.61-1.07.08-1.33,1.08-1.24Z" fill="#fff" stroke-width="0"/>
    <path d="m56.32,205.84c-1.53,1.16-1.07,2.77-.61,4.5.17.63-.71.71-1.26.42-1.29-.69-2.32-.34-3.35.59-.98.88-1.56.42-1.46-.76.12-1.35-.35-2.19-1.5-2.89-1.16-.71-.93-1.47.34-1.79,1.23-.3,1.83-1.04,2.08-2.27.22-1.09.92-1.53,1.63-.42.77,1.2,1.68,1.72,3.08,1.5.57-.09,1.14.05,1.03,1.12Z" fill="#fff" stroke-width="0"/>
    <path d="m224.42,190.88c.86.26,1.56-.29,2.19-1.15.78-1.05,1.56-1.3,1.85.34.21,1.21.74,2,1.97,2.37,1.28.39,1.46,1.16.2,1.76-1.26.6-1.63,1.54-1.71,2.81-.08,1.24-.76,1.5-1.58.59-.93-1.02-1.92-1.14-3.17-.77-1.24.37-1.58-.27-1.08-1.33.47-1,.76-1.85-.03-2.88-1.06-1.39-.59-2.02,1.37-1.73Z" fill="#fff" stroke-width="0"/>
    <path d="m268.14,180.3c-1.04,1.3-.53,2.58.13,3.95.28.57-.42.8-.92.71-1.19-.21-2.09.06-2.88,1.07-.77.99-1.36.44-1.44-.51-.11-1.22-.76-1.82-1.82-2.22-1.2-.44-.86-1.02-.04-1.56.23-.15.45-.34.71-.43,1.42-.47-.01-3.12,1.77-2.78,1.11.21,2.04,1.51,3.5.98.5-.18.95,0,.99.78Z" fill="#fff" stroke-width="0"/>
    <path d="m112.89,285.17c-.39.83-.01,1.51.62,2.15,1.15,1.16.65,1.63-.74,1.67-.92.03-1.53.49-1.92,1.34-.52,1.11-1.14,1.51-1.71.03-.39-1.01-1.04-1.52-2.13-1.69-1.2-.18-1.43-.83-.38-1.6.91-.67,1.1-1.5.94-2.55-.21-1.36.49-1.49,1.43-.87.83.55,1.58.75,2.49.21,1.55-.9,1.62.01,1.4,1.3Z" fill="#fff" stroke-width="0"/>
    <path d="m270.04,101.99c-1.4,1.06-.89,2.51-.68,4.03.1.74-.84.49-1.32.29-.92-.38-1.68-.32-2.48.36-.95.82-1.67.76-1.6-.74.05-.97-.17-1.69-1.1-2.24-1.43-.84-.91-1.5.37-1.82.92-.23,1.4-.74,1.61-1.65.27-1.13.83-1.77,1.68-.42.6.95,1.35,1.28,2.42,1.19.55-.05,1.16,0,1.09,1Z" fill="#fff" stroke-width="0"/>
    <path d="m10.69,117.36c-2.02.59-2.44,2.31-2.94,3.98-1.47-1.01-3.09-1.48-4.87-1.35-.04,0-.17-.29-.12-.34,1.21-1.59.15-3.12-.07-4.67,0-.04.64-.3.91-.23,1.26.34,2.12-.13,2.86-1.12.35-.47,1.07-.85,1.22.01.26,1.53.94,2.53,2.43,2.98.15.05.24.3.57.75Z" fill="#fff" stroke-width="0"/>
    <path d="m157.93,14.88c.61-1.09.05-1.96-.82-2.81-.6-.58-.57-1.22.38-1.27,1.31-.07,2.19-.53,2.76-1.77.42-.91,1.1-.86,1.42.11.39,1.21,1.15,1.75,2.37,1.95,1.2.2,1.11.9.27,1.52-.9.65-1.15,1.44-.99,2.52.19,1.26-.43,1.57-1.43.88-.92-.64-1.75-.62-2.68-.06-1.02.61-1.39.15-1.28-1.06Z" fill="#fff" stroke-width="0"/>
    <path d="m8.84,197.35c-1.92.11-2.56,1.82-3.55,3.2-.15.21-.62-.16-.79-.48-.6-1.12-1.51-1.44-2.75-1.37-.99.05-1.22-.61-.59-1.36.81-.96.88-1.91.41-3.06-.38-.92.08-1.37,1.03-.98,1.12.47,2.06.44,3.01-.45.69-.64,1.36-.45,1.31.61-.06,1.22.24,2.17,1.38,2.75.32.16.53.44.54,1.15Z" fill="#fff" stroke-width="0"/>
    <path d="m47.01,246.6c.05.54-.35.72-.75.8-1.22.24-1.87.91-2.16,2.16-.28,1.16-1.01,1.01-1.54.13-.6-1.01-1.38-1.43-2.56-1.31-1.1.11-1.5-.43-.72-1.32.85-.96.92-1.87.45-3.04-.36-.88.09-1.41,1.04-.98,1.16.52,2.1.32,3.03-.49.42-.36,1.25-.61,1.2.26-.1,1.6.52,2.64,1.79,3.42.1.06.14.23.21.36Z" fill="#fff" stroke-width="0"/>
    <path d="m242.99,242.99c-.98-.35-1.52.3-2.08.95-.74.86-1.47.96-1.65-.34-.16-1.11-.65-1.72-1.66-2.12-1.02-.4-1.41-1.02-.14-1.64.97-.47,1.44-1.16,1.49-2.26.05-1.17.6-1.58,1.53-.63.76.78,1.55,1.06,2.6.7,1.24-.42,1.57.11,1.08,1.23-.37.85-.64,1.62-.03,2.53.96,1.41.39,1.87-1.13,1.58Z" fill="#fff" stroke-width="0"/>
    <path d="m27.99,56.73c.94.34,1.43-.39,2-1,.76-.82,1.46-.95,1.64.39.14,1.1.63,1.73,1.67,2.09,1.09.38,1.32,1.08.15,1.66-.97.49-1.45,1.12-1.49,2.23-.05,1.13-.62,1.6-1.54.63-.76-.79-1.58-1.01-2.61-.7-1.26.38-1.57-.15-1.06-1.25.4-.87.59-1.64,0-2.53-1-1.52-.24-1.8,1.24-1.53Z" fill="#fff" stroke-width="0"/>
    <path d="m231.87,52.24c-1.14,1.05-1.16,2.38-.66,3.9.19.59-.42.86-.95.6-1.19-.59-2.19-.47-3.22.43-.8.7-1.34.26-1.22-.7.16-1.3-.42-2.08-1.44-2.74-.84-.55-.77-1.17.24-1.41,1.2-.29,1.93-.9,2.17-2.18.14-.76.77-1.17,1.3-.38.77,1.15,1.65,1.79,3.08,1.59.44-.06.8.2.71.9Z" fill="#fff" stroke-width="0"/>
    <path d="m95.97,23.3c.65-1.14.02-1.99-.8-2.85-.66-.7-.52-1.29.55-1.32,1.24-.03,2.07-.53,2.59-1.69.41-.91,1.04-.96,1.41.03.43,1.16,1.08,1.83,2.37,1.96.86.09,1.3.72.45,1.4-.97.77-1.4,1.61-1.17,2.87.19,1.03-.48,1.33-1.23.8-1.06-.76-1.98-.64-3.06-.09-.98.5-1.22-.11-1.09-1.1Z" fill="#fff" stroke-width="0"/>
    <path d="m174.98,276.17c-.74,1.25-.1,2.22.81,3.22.62.67.21,1.17-.64,1.17-1.24,0-2.05.57-2.57,1.7-.42.92-1.03.95-1.4-.02-.43-1.14-1.07-1.81-2.35-1.98-1.17-.15-1.15-.89-.33-1.53.86-.66,1.22-1.39,1.04-2.49-.19-1.15.29-1.7,1.37-.94,1.01.71,1.9.57,2.88.03.78-.43,1.16-.14,1.19.83Z" fill="#fff" stroke-width="0"/>
    <path d="m79.7,74.22c.15.17.36.34.49.55.15.23.29.49.33.76.19,1.4,2.66.46,2.26,1.99-.24.91-1.52,1.47-1.2,2.84.2.86-.57,1.27-1.1.67-1.22-1.38-2.74.59-3.53-.31-.66-.75.58-2.39-.78-3.33-.41-.28-.53-1.09.12-1.1,1.44-.01,2.27-.74,2.95-1.86.06-.09.23-.11.46-.21Z" fill="#fff" stroke-width="0"/>
    <path d="m114.43,57.45c-.22.24-.37.56-.56.59-1.22.19-1.94.82-2.25,2.07-.19.75-.81.74-1.2.12-.57-.88-1.21-1.45-2.35-1.29-.5.07-1.21-.55-.84-.73,1.84-.88-.63-3.97,1.74-3.87,1.36.06,2.47-1.27,3.35-.62.8.59-.04,2.49,1.51,3.08.22.08.36.38.6.65Z" fill="#fff" stroke-width="0"/>
    <path d="m203.98,85.33c-.86-1.28-2.18-1.32-3.59-1.12-.25.04-.51-.45-.34-.62,1.37-1.35-.75-3.5.27-3.96,1.11-.5,2.53-.5,3.56-1.48.06-.06.5.1.51.18.15,1.55,1.14,2.39,2.4,3.04.08.04.11.35.08.36-1.43.74-1.99,2.08-2.41,3.52-.02.05-.24.04-.48.08Z" fill="#fff" stroke-width="0"/>
    <path d="m160.04,238.96c.72,1.5,2.03,1.91,3.52,2.01.04,0,.17.59.05.72-.86.99-1.04,2.05-.59,3.27.12.33-.23.91-.45.69-1.45-1.4-3.24,1.37-4.2-.19-.5-.81-.4-2.05-1.48-2.7-.4-.24-.43-.9.04-1,1.42-.29,2.07-1.21,2.48-2.47.04-.13.32-.18.61-.33Z" fill="#fff" stroke-width="0"/>
    <path d="m227.19,139.33c-1.5-.83-1.83,1.71-2.97,1.05-.82-.47-.24-2.23-1.71-2.56-.49-.11-1.07-1.08-.68-1.04,2.19.2.64-4,3.41-2.78.12.05.24.17.29.29.65,1.3,2.62-1,2.77.89.08,1-.52,1.96.07,3.12.68,1.35-.61.89-1.17,1.04Z" fill="#fff" stroke-width="0"/>
    <path d="m70.83,216.28c-.88,1.02-.52,2.15.11,3.32.19.36-.18.84-.48.67-1.73-.97-2.9,1.96-3.87.95-.78-.81-1.08-2.22-2.37-2.8-.25-.11-.2-.66.03-.7,1.89-.34,1.36-3.24,2.51-3.15,1.12.09,2.25,1.31,3.74.9.21-.06.42.31.34.8Z" fill="#fff" stroke-width="0"/>
    <path d="m193.89,220.36c-.6,1.18,1.51,1.7.96,2.78-.45.89-2.03-.02-2.59,1.26-.65,1.49-.9.77-1.95-.02-1.93-1.44-2.04-2.46-1.14-4.57.54-1.26.59-1.67,1.76-.89.49.33.95.45,1.53.15,1.24-.63,2.07-.63,1.44,1.28Z" fill="#fff" stroke-width="0"/>
    <path d="m105.34,235.05c-.15.24-.22.44-.37.56-.15.13-.38.24-.57.23-1.67-.01-1.28,2.39-2.41,2.36-1.01-.03-1.38-2.03-3-1.67-.72.16-1.09-.38-.6-1.01.7-.89,1.09-1.75.5-2.84-.09-.16-.04-.58,0-.58,1.53-.26,3.07-.48,4.61-.69.04,0,.17.25.15.36-.26,1.51.61,2.45,1.7,3.29Z" fill="#fff" stroke-width="0"/>
    <path d="m172.79,63.86c-1.11,1.01-1.32,2.2-.76,3.57.1.25-.31.65-.47.52-1.5-1.23-3.26,1.06-4.11.07-.67-.78-.51-2.42-1.73-3.22-.25-.16-.11-.68.13-.67,1.88.08,2.11-2.82,3.17-2.45,1.1.39,2.01,1.64,3.48,1.62.09,0,.17.31.3.55Z" fill="#fff" stroke-width="0"/>
    <path d="m43.85,160.45c1.37.74,1.68-1.79,2.84-1.14.84.47.22,2.17,1.67,2.59,1.26.36,1.18,1.13.04,1.57-1.35.52-.75,2.18-1.57,2.66-1.02.61-1.5-1.52-2.85-1.02-1.39.52-1.87.03-1.18-1.36.3-.6.32-1.18-.05-1.77-.81-1.27-.46-1.78,1.1-1.52Z" fill="#fff" stroke-width="0"/>
    <path d="m225.57,175.92c-1.41-1.79-.59-2.7,1.42-4,1.42-.92,1.17-.63,2.29.23,1.82,1.39,1.83,2.07,1.04,4.15-.62,1.65-.65,1.95-2.02.99-.47-.33-.92-.15-1.36.08-1.25.64-1.85.42-1.37-1.44Z" fill="#fff" stroke-width="0"/>
    <path d="m45.31,123.76c-.47,1.06,1.29,1.6,1.03,2.57-.31,1.13-2.01.05-2.54,1.24-.74,1.64-.92,1.04-2.19.07-1.93-1.49-1.74-2.28-1.03-4.34.55-1.61.61-1.84,1.9-.94.45.31.89.3,1.36.05,1.34-.72,1.99-.51,1.48,1.36Z" fill="#fff" stroke-width="0"/>
    <path d="m208.77,201.11c1.2,1.44,2.51-1.02,2.92.04.43,1.12.91,2.15,1.56,3.13-1.22.54-2.04,1.54-2.86,2.54-.67-1.28-2.27-1.13-3.16-2.06,1.36-.74-.03-2.81,1.54-3.65Z" fill="#fff" stroke-width="0"/>
    <path d="m147.3,56.39c-1.42,1.09.31,2.74-.4,3.2-.89.58-2.3.43-3.17,1.4-.72-1.06-1.24-2.28-2.4-2.98,1.05-.84,1.39-2.63,2.27-2.99.86-.35,2.32.8,3.7,1.36Z" fill="#fff" stroke-width="0"/>
    <path d="m112.7,6.79c1.01-.24,2.3.32,2.97-.95.03-.06.11-.09.16-.13.4-.27.85.08.75.29-.84,1.68,2.8,1.41,1.37,3.25-.24.31-.82.35-.87.83-.19,1.86-.86,1.11-2.17.9-1.94-.3-2.36-.62-1.69-2.43.16-.44-.67-1.02-.53-1.76Z" fill="#fff" stroke-width="0"/>
    <path d="m129.85,241.69c-1.46.74-2,1.77-2.28,3.02-.06.25-.49.1-.71-.08-.32-.26-.67-.79-.95-.76-1.8.22-1.8-.34-1.84-2.12-.04-1.69-.18-2.19,1.59-1.98.28.03.62-.49.95-.73.21-.15.65-.38.67-.34.75,1.05.82,2.59,2.57,2.98Z" fill="#fff" stroke-width="0"/>
    <path d="m8.36,74.34c.97.72,1.69-1.06,2.52-.5.73.5-.08,1.96,1.07,2.48.18.08.36.23.46.4.23.37-.02.87-.29.77-1.76-.68-1.07,2.91-3.04,1.72-.06-.03-.08-.14-.13-.15-2.07-.54-2.36-1.77-1.87-3.76.23-.95.11-1.45,1.29-.94Z" fill="#fff" stroke-width="0"/>
    <path d="m152.19,291.07c.78-.74,1.91-1.21,1.9-2.53,0-.37.43-.73.7-.46.82.82,1.74,1.01,2.82.81.31-.06.44.26.44.56,0,.13-.09.27-.09.4.01,1.75.18,3.42-2.37,3.74-.79.1-1.31.81-1.43-.46-.11-1.22-1.45-1.17-1.98-2.07Z" fill="#fff" stroke-width="0"/>
    <path d="m220.16,239.48c1.19,1.18,2.35-1.17,2.75-.1.42,1.13,1.61,2.5,1.39,3.06-.41,1.08-1.83,1.78-2.82,2.63-.46-1.5-2.31-1.03-3.04-2.15,1.58-.53-.4-3.1,1.72-3.45Z" fill="#fff" stroke-width="0"/>
    <path d="m110.2,31.08c1.07-.23,2.36.14,3.11-1.08.21-.35.74-.26.77.14.09,1.2.76,1.83,1.76,2.31.39.19.26.59-.03.85-.15.13-.46.17-.52.32-.7,1.97-1.9,2.17-3.78,1.5-.85-.3-1.58-.2-.93-1.23.68-1.08-.46-1.79-.36-2.81Z" fill="#fff" stroke-width="0"/>
    <path d="m245.4,141.1c-1.32.71-1.12,2.08-1.61,3.14-.26.57-1.13-.59-1.61-.4-3.5,1.35-1.41-2.63-2.97-3.13-.11-.03.11-.47.44-.51.34-.05.87,0,.99-.21,1.85-2.9,2.8.68,4.25.59.12,0,.25.26.5.52Z" fill="#fff" stroke-width="0"/>
    <path d="m160.63,265.25c-.64.91-.66,1.84.03,2.82.25.35-.02.71-.44.67-1.01-.1-1.9.02-2.56.92-.24.32-.88.22-.81-.06.44-1.71-2.1-1.62-1.8-3.14.03-.14.34-.22.5-.34.22-.16.58-.31.62-.51.31-1.62.86-2.37,2.38-.92.2.19.78-.02,1.19-.06.45-.05.83-.02.9.63Z" fill="#fff" stroke-width="0"/>
    <path d="m61.92,98.37c-1-1.31-2.32,1.28-2.74.16-.42-1.12-.94-2.13-1.54-3.13,1.26-.5,1.99-1.6,2.88-2.51.62,1.33,2.28,1.1,3.13,2.09-1.14.92-.49,2.28-.86,3.38-.03.08-.5.01-.86.01Z" fill="#fff" stroke-width="0"/>
    <path d="m270.06,201.48c-.4,1.12-1.34,2.06-.63,3.32.18.33-.27.73-.59.57-1.22-.63-2.22-.06-3.28.77-.27-1.33-.06-2.55-1.29-3.16-.44-.22-.31-1,.09-.91,1.72.37,1.31-2.88,2.76-1.85.94.67,1.84.96,2.95,1.26Z" fill="#fff" stroke-width="0"/>
    <path d="m25.58,158.76c.5-.89,1.67-1.54,1.23-2.85-.02-.06,0-.14.02-.2.15-.4.7-.56.78-.33.64,1.82,2.6-1.15,3.35,1.09.76,2.26-.15,3.29-1.81,4.32-.47.29-.74.63-1.12,0-.28-.46-.35-1.08-.95-1.29-.51-.18-1.09-.2-1.5-.74Z" fill="#fff" stroke-width="0"/>
    <path d="m51.98,184.67c.75.8.98,2.22,2.48,2.18.31,0,.55.55.2.81-.86.64-1.28,1.4-1.04,2.48.01.06-.02.14-.04.2-.12.43-.62.61-.76.34-.8-1.54-2.55.6-3.28-.92-.05-.1.05-.27.04-.41-.05-1.66.42-2.59,2.41-4.69Z" fill="#fff" stroke-width="0"/>
    <path d="m46.36,57.08c.83-.6,2.14-.64,2.36-2,.08-.47.87-.62.87-.19,0,1.84,3.12.06,2.57,2.39-.4,1.69-.63,3.27-3.08,3.04-.78-.07-1.5.53-1.31-.76.19-1.24-1.17-1.46-1.41-2.47Z" fill="#fff" stroke-width="0"/>
    <path d="m258.42,75.49c.73-.17,1.33-.13,1.62-.41,1.19-1.13,1.91-1.67,3.32.1.73.91,1.91.9.44,2.06-.36.29-.32.72-.28,1.15.11,1.15-.3.9-1.29.87-1.97-.06-3.05-.57-3.09-2.67,0-.28-.35-.55-.72-1.1Z" fill="#fff" stroke-width="0"/>
    <path d="m88.11,243.67c.92.53,1.66,1.64,2.93.99.05-.03.14,0,.2.02.44.1.62.63.41.75-1.54.87,1.34,2.66-.73,3.34-.12.04-.32-.08-.4-.02-1.53,1.09-2.5,1.04-3.58-.86-.53-.94-1.46-1.16.01-1.86.93-.44.39-1.57,1.16-2.36Z" fill="#fff" stroke-width="0"/>
    <path d="m264.66,221.48c-.63,1.27-1.38,2.23-.86,3.5.21.52-.3.75-.75.54-.85-.42-1.57-.3-2.29.3-.38.32-.95.28-.95-.23,0-1.15-.39-1.98-1.31-2.63-.24-.17-.16-.59.13-.67,1.07-.3,1.83-.85,2.11-2,.1-.43.58-.48.77-.11.62,1.24,1.75,1.38,3.16,1.31Z" fill="#fff" stroke-width="0"/>
    <path d="m247.01,58.66c1.09.89,2.09,1.69,3.08,2.49-1.17.83-.93,2.37-1.7,3.41-.74-1.61-3.31,1.05-3.34-1.23-.01-1.16-1.68-2.24-.61-2.83,1-.55,1.99-.99,2.57-1.84Z" fill="#fff" stroke-width="0"/>
    <path d="m78.2,61.75c-.84.54-2.15.64-2.26,2.04,0,.06-.05.13-.09.18-.26.39-.79.34-.79.03,0-1.8-2.99-.22-2.59-2.35.03-.19.34-.37.31-.52-.37-2,.51-2.21,2.36-2.51,1.49-.24,1.73-.36,1.68,1.1-.03.95,1.33,1,1.38,2.02Z" fill="#fff" stroke-width="0"/>
    <path d="m199.02,237.13c-.8,1.19-1.45,2.1-.83,3.29.18.35-.22.79-.53.66-1.06-.48-1.95-.29-2.86.36-.35.25-.62-.09-.67-.48-.03-.2.07-.5-.04-.61-1.94-1.86-.33-3.01.79-4.3.35-.4.65-.95,1.02-.26.63,1.2,1.76,1.13,3.12,1.34Z" fill="#fff" stroke-width="0"/>
    <path d="m26.09,236.42c-.71,1.31,1.3,2.33.53,2.68-1.14.51-2.07,1.11-2.9,1.97-.81-1.01-1.72-1.9-2.9-2.47.61-1.14,1.21-2.29,1.82-3.43.62,1.6,3.07-.98,3.46,1.25Z" fill="#fff" stroke-width="0"/>
    <path d="m.8,98.23c.46-1.14,1.35-2.07.66-3.36-.21-.4.4-.76.8-.52,1.14.69,1.95-.13,2.98-.68.36,1.38.35,2.86,2.12,3.46-1.3.78-2.52,1.09-2.76,2.46-.07.4-.63.51-.78.15-.57-1.33-1.79-1.32-3.03-1.51Z" fill="#fff" stroke-width="0"/>
    <path d="m99.77,273.72c-.73-1.01-1.77-1.15-3.02-1-.47.06-.32-.61-.14-1.01.22-.49.58-.95.19-1.55-.94-1.44.03-1.12,1.02-1.56,1.7-.76,2.65-.96,3.3,1.04.14.43,1.4.68,1.05.98-1,.87-1.64,1.88-2.09,3.07-.01.03-.13.01-.3.03Z" fill="#fff" stroke-width="0"/>
    <path d="m218.93,115.1c-.77-.87-1.03-2.21-2.5-2.28-.49-.02-.49-.68-.08-.95.89-.58,1.1-1.35.91-2.33-.02-.12.06-.27.13-.39.18-.33.55-.31.68-.11.9,1.31,2.69-.53,3.16.69.33.84.07,1.97.77,2.85.27.33-.1.74-.46.69-1.39-.19-1.81,1.03-2.63,1.82Z" fill="#fff" stroke-width="0"/>
    <path d="m260.68,122.48c-.94.34-2.25.14-2.67,1.47-.02.06-.07.13-.12.17-.33.26-.88.2-.8-.13.43-1.81-2.94-.86-2.03-2.9.05-.11.3-.18.3-.27.03-2.87,2.24-1.84,3.73-2.16.68-.14.91.05.87.7-.04.53-.43,1.03-.05,1.61.29.45.86.75.78,1.51Z" fill="#fff" stroke-width="0"/>
    <path d="m134.61,299.38c-.15-.11-.32-.2-.44-.34-.08-.1-.14-.26-.12-.39.18-1.46-1.94-1.38-1.79-2.41.11-.82,1.81-1.01,1.59-2.37-.02-.12.07-.27.14-.38.23-.41.78-.37.81-.1.23,1.96,2.84-.62,3.05,1.77.2,2.27-.78,3.27-2.67,3.86-.18.06-.34.22-.56.37Z" fill="#fff" stroke-width="0"/>
    <path d="m170.81,25.87c.99.52,1.71,1.69,2.98,1.01.05-.03.14,0,.2.02.41.1.66.62.41.73-1.79.8,1.43,2.78-.83,3.37-.25.07-.67-.16-.81-.03-1.5,1.46-1.83.54-2.97-.73-1.22-1.35-1.19-1.53.17-2.3.67-.37.2-1.34.83-2.07Z" fill="#fff" stroke-width="0"/>
    <path d="m11.44,222.06c2.15,2.52-1.48,2.57-2.31,4.02-.99-.88-1.98-1.76-2.96-2.64,1.43-.61,1.17-3.32,1.72-3.05,1.28.63,2.36-.13,3.44.24.12.04.06.63.12,1.43Z" fill="#fff" stroke-width="0"/>
    <path d="m184.98,53c-1.42.41-1.44,1.94-2.24,2.84-.35.4-.98-.75-1.64-.98-.63-.21-1.74.69-1.78-.16-.05-1.11.26-2.22-.15-3.36-.13-.37.43-.4.77-.41.47-.01,1,.21,1.37-.23,1.11-1.35,1.66-1.07,1.95.56.16.89,1.54.63,1.73,1.73Z" fill="#fff" stroke-width="0"/>
    <path d="m135.99,0c1.08,1.22,1.36,2.72,2.73,3.17-.75,1.1-1.49,2.21-2.24,3.31-.91-1.11-2.41-.71-3.5-1.36.81-1.14-.41-2.62.2-3.4.54-.69,2.35.16,2.8-1.73Z" fill="#fff" stroke-width="0"/>
    <path d="m10.14,177.18c.46-.08.99,0,1.23-.23,1.39-1.35,2.41-1.31,3.84.2.72.77,1.52.84.31,1.72-.36.26-.55.63-.5,1.07.21,1.69-.53,1.56-1.62.9-.21-.13-.58-.21-.78-.11-1.52.73-2.03.44-1.5-1.3.25-.82-.85-1.2-.99-2.26Z" fill="#fff" stroke-width="0"/>
    <path d="m222.84,73.01c.01-.16.13-.45.04-.56-1.33-1.56-.53-1.85.95-2.75,1.26-.76,1.62-1.45,2.29.28.09.23.56.34.88.43.99.28.92.52.49,1.53-.73,1.72-1.38,2.58-3.47,2.22-.96-.17-1.61.24-1.18-1.15Z" fill="#fff" stroke-width="0"/>
    <path d="m26.83,111.53c-1.15.67-2.36.99-2.6,2.37-.08.46-.53.35-.81.09-.2-.18-.32-.61-.51-.63-2.87-.27-1.63-2.37-1.77-3.88-.06-.62.06-1.1.71-.81,1.14.52,1.99-.05,3.05-.72.19,1.48.57,2.75,1.93,3.58Z" fill="#fff" stroke-width="0"/>
    <path d="m250.46,187.24c-.41,1.06-1.37,1.93-.72,3.13.14.26-.02.71-.27.65-1.17-.25-2.25-.32-3.25.53-.2.17-.46-.19-.49-.48-.04-.34.1-.81-.07-1.01-1.07-1.27-1.28-1.9.36-3.28,1.18-1,1.24-1.44,2.28-.15.37.46,1.36.41,2.16.62Z" fill="#fff" stroke-width="0"/>
    <path d="m48.07,226.56c-.01.07-.06.16-.03.2,1.67,2.24-.52,2.83-1.64,3.9-.32.3-.72.72-.96.21-.49-1.01-1.15-1.65-2.25-1.86-.29-.06-.36-.39-.19-.67.11-.17.34-.29.39-.47.52-1.88,1.49-2.64,3.64-2.4,1.12.12,1.3.1,1.04,1.1Z" fill="#fff" stroke-width="0"/>
    <path d="m144.65,16.12c2.08-1.35,1.25,1.47,2.2,1.95-.71.62-1.43,1.23-2.14,1.85-.4-.91-1.54-.91-2.05-1.68,1.12-.24-.29-2.57,1.99-2.12Z" fill="#fff" stroke-width="0"/>
    <path d="m56.61,252.68c1.7-1.19,3.13-.66,3.95,1.01.18.37-.91,1.96-1.5,2.01-2.01.16-2.54-1.32-2.46-3.02Z" fill="#fff" stroke-width="0"/>
    <path d="m233.99,156.5c-.64.49-1.35,1.41-1.98,1.55-.63.14-1.51-.81-2.28-1.29.9-.53-.03-1.93,1.22-2.4,1.98-.74,2.25.91,3.03,2.13Z" fill="#fff" stroke-width="0"/>
    <path d="m240.41,122.5c-1.24.64-1.91,1.24-2.44,1.98-.48-.88-2.11-.6-2.12-1.68-.02-1.55,1.02-2.49,2.62-2.35,1.19.1.29,1.82,1.94,2.05Z" fill="#fff" stroke-width="0"/>
    <path d="m82.72,232.85c-.68-1.26-1.92-.02-2.27-.8-.27-.59-.01-1.46-.51-2.1.72-.5,1.48-1.45,2.13-1.37.73.08,1.77,1.02,1.9,1.73.12.69-.73,1.56-1.25,2.54Z" fill="#fff" stroke-width="0"/>
    <path d="m241.56,203.08c-1.54-.16-.39,1.83-1.91,1.86-1.92.03-2.39-1.32-2.33-2.63.04-.87,1.65-.67,2.27-1.42.59.66,1.19,1.33,1.96,2.19Z" fill="#fff" stroke-width="0"/>
    <path d="m190.92,69.82c-.65.43-1.43,1.36-2.16,1.32-.68-.03-1.3-1.1-1.94-1.71.73-.6.46-1.94,1.37-2.24,1.13-.37,2.57,1.03,2.73,2.63Z" fill="#fff" stroke-width="0"/>
    <path d="m203.98,64.85c-.67-.59-1.08-1.53-2.2-1.25.45-1.66.9-3.05,2.84-2.89.58.05,1.54,2.58,1.07,2.68-.88.19-1.09.99-1.71,1.46Z" fill="#fff" stroke-width="0"/>
    <path d="m128.2,281.19c-.32,1.71-1.18,3.01-3.07,2.53-.49-.13-1.15-1.91-.87-2.33,1.08-1.57,2.57-1.34,3.94-.2Z" fill="#fff" stroke-width="0"/>
    <path d="m36.72,143.53c.88-.81,1.5-1.85,2.2-1.91.69-.06,2.1.9,2.08,1.37-.05,1.33-.52,2.69-2.46,2.52-1.5-.13-.22-2.05-1.82-1.99Z" fill="#fff" stroke-width="0"/>
    <path d="m9.48,134.23c-.5,1.6-1.35,3.04-3.34,2.2-.49-.21-.94-2.04-.61-2.41,1.22-1.38,2.7-1.2,3.95.22Z" fill="#fff" stroke-width="0"/>
    <path d="m243.01,225.29c-.33-1.5-.15-3.1,1.9-3.32.58-.06,1.97,1.4,1.85,1.76-.57,1.65-1.66,2.92-3.75,1.57Z" fill="#fff" stroke-width="0"/>
    <path d="m91.92,60.84c2.04.13,2.89,1.41,2.4,3.26-.12.45-2.05,1.01-2.42.69-1.34-1.18-1.41-2.7.02-3.94Z" fill="#fff" stroke-width="0"/>
    <path d="m262.78,163.2c2.38-.91,2.39,1.06,2.6,2.18.08.43-1.23,1.13-1.91,1.7-.48-.85-1.66-.96-2.03-1.93,1.09-.22.01-2.1,1.34-1.95Z" fill="#fff" stroke-width="0"/>
    <path d="m83.97,28.68c1.93.56,2.64,1.92,1.87,3.67-.19.42-2.09.68-2.44.3-1.32-1.42-.74-2.86.58-3.97Z" fill="#fff" stroke-width="0"/>
    <path d="m66.86,234.98c1.93.68,2.34,2.13,1.43,3.73-.24.41-2.11.52-2.47.1-1.42-1.63-.34-2.88,1.04-3.83Z" fill="#fff" stroke-width="0"/>
    <path d="m214.21,47.1c-1.6.96-3.1.74-3.82-1.11-.17-.44.9-1.95,1.46-1.99,2.02-.13,2.53,1.33,2.36,3.1Z" fill="#fff" stroke-width="0"/>
    <path d="m186.69,270.89c-1.83-.32-2.23-1.81-1.7-3.4.14-.43,2.33-.76,2.49-.5.75,1.3,1.64,2.89-.78,3.9Z" fill="#fff" stroke-width="0"/>
    <path d="m176.7,236.8c-1.32-2.28,1.56-1.04,1.95-2,.6.66,1.19,1.31,1.79,1.97-.8.55-.9,1.71-1.83,2.14-.12-1.15-2.63.11-1.91-2.11Z" fill="#fff" stroke-width="0"/>
    <path d="m94.14,48.95c-.25-1.16-1.39-1.34-1.82-2.17,1.05-.26.36-1.96,1.74-2.03,1.91-.1,2.35,1.25,2.26,2.59-.06.92-1.71.5-2.18,1.62Z" fill="#fff" stroke-width="0"/>
    <path d="m129.24,31.28c2.03-1.31,1.27,1.49,2.24,1.95-.71.6-1.42,1.21-2.13,1.81-.41-.86-1.65-.74-1.98-1.69,1.04-.27-.28-2.4,1.87-2.08Z" fill="#fff" stroke-width="0"/>
    <path d="m18.71,206.97c.54,2.1-.95,2.6-2.25,2.75-.5.05-1.67-1.3-1.58-1.86.12-.78,1.14-1.43,1.77-2.13.32,1.05,1.87.22,2.06,1.25Z" fill="#fff" stroke-width="0"/>
    <path d="m141.68,268.33c-2.29,1.35-1.27-1.55-2.25-2,.69-.57,1.37-1.57,2.08-1.59.67-.02,1.37.97,2.06,1.52-1.11.24.39,2.68-1.89,2.07Z" fill="#fff" stroke-width="0"/>
    <path d="m252.42,91.76c-.99-2.41,1.83-.78,2.02-1.93.56.73,1.57,1.46,1.56,2.18-.01.69-1.08,1.36-1.68,2.04-.19-1.13-3.18.07-1.89-2.28Z" fill="#fff" stroke-width="0"/>
    <path d="m25.39,73.77c1.4-.11,2.98,1.34,2.77,2.63-.16.96-1.67.54-2.09,1.46-.65-.63-1.7-1.19-1.84-1.92-.12-.66.77-1.5,1.15-2.17Z" fill="#fff" stroke-width="0"/>
    <path d="m106.01,251.83c1.47-1.27,2.99-1.24,4.01.37.27.42-.54,2.23-1.03,2.31-1.88.31-2.84-.89-2.98-2.68Z" fill="#fff" stroke-width="0"/>
    <path d="m33.45,97.79c-1.35,1.08-2.84.83-3.76-.68-.25-.41.75-2.3,1.19-2.31,1.74-.02,3.15.74,2.57,2.99Z" fill="#fff" stroke-width="0"/>
    <path d="m178.78,252.75c-1.2.51-.82,2.12-1.71,2.21-1.55.15-2.67-.75-2.52-2.45.1-1.15,1.69-.7,2.17-1.58.68.58.83,1.65,2.06,1.83Z" fill="#fff" stroke-width="0"/>
    <path d="m62.22,73.77c1.05,2.61-1.31,2.12-2.21,2.89-.54-.71-1.5-1.42-1.5-2.12,0-.7.99-1.39,1.54-2.08.48.88,2.03.22,2.16,1.32Z" fill="#fff" stroke-width="0"/>
    <path d="m210.99,223.08c1.45,1.3,1.52,2.83,0,4.02-.39.31-2.25-.31-2.38-.79-.52-1.85.43-3.04,2.38-3.22Z" fill="#fff" stroke-width="0"/>
    <path d="m31.15,176.79c1.04-1.36,2.51-1.67,3.84-.19.34.38-.07,2.2-.49,2.34-1.73.61-3.25.25-3.35-2.15Z" fill="#fff" stroke-width="0"/>
    <path d="m231.62,85.96c-.99-2.45,1.8-.76,2.04-1.87.55.69,1.56,1.39,1.53,2.05-.03.72-1.03,1.39-1.61,2.09-.31-1.05-3.06.03-1.96-2.27Z" fill="#fff" stroke-width="0"/>
    <path d="m39.44,214.96c-1.78.95-3.16.32-3.75-1.47-.14-.43,1.19-1.96,1.67-1.89,1.74.26,2.55,1.52,2.08,3.36Z" fill="#fff" stroke-width="0"/>
    <path d="m25.83,131.5c-.06,1.64,1.78.25,2,1.87.3,2.13-1.23,2.23-2.38,2.46-.37.08-1.47-1.32-1.45-2.02.02-.7,1.03-1.37,1.82-2.31Z" fill="#fff" stroke-width="0"/>
    <path d="m162.69,49.96c-.35-1.64-1.38-1.9-1.93-2.65.82-.49.48-2.14,1.45-2.05.69.06,1.67-.26,2.07.19.46.52.31,1.51.43,2.25.12.69-1.69.49-2.03,2.25Z" fill="#fff" stroke-width="0"/>
    <path d="m243.21,166.46c-.98-2.61,1.37-1.97,2.27-2.69.52.74,1.47,1.5,1.43,2.22-.03.65-1.13,1.25-1.76,1.87-.33-.96-2.07-.11-1.95-1.4Z" fill="#fff" stroke-width="0"/>
    <path d="m257.96,148.6c-.6.05-.9-.25-.94-.84-.02-.26,2.79-2.9,3.02-2.79.45.21,1.24.06,1.23.84,0,1.03-2.22,2.85-3.31,2.8Z" fill="#fff" stroke-width="0"/>
  </g>
  <g>
    <path d="m462.04,8.02h8.01l6.18,27.45,7.64-27.45h6.77l7.75,27.45,6.12-27.45h8.01l-9.64,43.01h-7.81l-7.88-27.81-7.74,27.81h-7.74l-9.69-43.01Z" fill="#fff" stroke-width="0"/>
    <path d="m518.05,6.94h7.88v15.5c1.55-1.34,3.11-2.35,4.68-3.03,1.57-.67,3.16-1.01,4.77-1.01,3.14,0,5.79,1.09,7.94,3.27,1.84,1.89,2.76,4.67,2.76,8.33v21.02h-7.82v-13.95c0-3.68-.17-6.18-.52-7.48-.35-1.31-.95-2.28-1.79-2.92-.84-.64-1.89-.96-3.13-.96-1.61,0-2.99.54-4.15,1.61-1.15,1.07-1.95,2.53-2.4,4.39-.23.95-.35,3.14-.35,6.55v12.78h-7.88V6.94Z" fill="#fff" stroke-width="0"/>
    <path d="m568.63,18.4c2.99,0,5.79.75,8.42,2.25,2.63,1.5,4.68,3.54,6.15,6.11,1.47,2.57,2.21,5.35,2.21,8.33s-.74,5.81-2.23,8.42c-1.48,2.61-3.51,4.65-6.06,6.12-2.56,1.47-5.38,2.21-8.46,2.21-4.54,0-8.41-1.62-11.62-4.87-3.21-3.25-4.81-7.19-4.81-11.83,0-4.97,1.81-9.11,5.44-12.43,3.18-2.88,6.84-4.33,10.97-4.33Zm.13,7.51c-2.47,0-4.52.86-6.16,2.59-1.64,1.73-2.46,3.93-2.46,6.62s.81,5.01,2.43,6.72c1.62,1.71,3.68,2.57,6.16,2.57s4.56-.87,6.21-2.6c1.65-1.73,2.48-3.97,2.48-6.7s-.81-4.95-2.43-6.65c-1.62-1.71-3.7-2.56-6.22-2.56Z" fill="#fff" stroke-width="0"/>
    <path d="m606.76,18.4c2.99,0,5.79.75,8.42,2.25,2.63,1.5,4.68,3.54,6.15,6.11,1.47,2.57,2.21,5.35,2.21,8.33s-.74,5.81-2.23,8.42c-1.48,2.61-3.51,4.65-6.06,6.12-2.56,1.47-5.38,2.21-8.46,2.21-4.54,0-8.41-1.62-11.62-4.87-3.21-3.25-4.81-7.19-4.81-11.83,0-4.97,1.81-9.11,5.44-12.43,3.18-2.88,6.84-4.33,10.97-4.33Zm.13,7.51c-2.47,0-4.52.86-6.16,2.59-1.64,1.73-2.46,3.93-2.46,6.62s.81,5.01,2.43,6.72c1.62,1.71,3.68,2.57,6.16,2.57s4.56-.87,6.21-2.6c1.65-1.73,2.48-3.97,2.48-6.7s-.81-4.95-2.43-6.65c-1.62-1.71-3.7-2.56-6.22-2.56Z" fill="#fff" stroke-width="0"/>
    <path d="m644.9,18.4c2.99,0,5.79.75,8.42,2.25,2.63,1.5,4.68,3.54,6.15,6.11,1.47,2.57,2.21,5.35,2.21,8.33s-.74,5.81-2.23,8.42c-1.48,2.61-3.51,4.65-6.06,6.12-2.56,1.47-5.38,2.21-8.46,2.21-4.54,0-8.41-1.62-11.62-4.87-3.21-3.25-4.81-7.19-4.81-11.83,0-4.97,1.81-9.11,5.44-12.43,3.18-2.88,6.84-4.33,10.97-4.33Zm.13,7.51c-2.47,0-4.52.86-6.16,2.59-1.64,1.73-2.46,3.93-2.46,6.62s.81,5.01,2.43,6.72c1.62,1.71,3.68,2.57,6.16,2.57s4.56-.87,6.21-2.6c1.65-1.73,2.48-3.97,2.48-6.7s-.81-4.95-2.43-6.65c-1.62-1.71-3.7-2.56-6.22-2.56Z" fill="#fff" stroke-width="0"/>
    <path d="m683.03,18.4c2.99,0,5.79.75,8.42,2.25,2.63,1.5,4.68,3.54,6.15,6.11,1.47,2.57,2.21,5.35,2.21,8.33s-.74,5.81-2.23,8.42c-1.48,2.61-3.51,4.65-6.06,6.12-2.56,1.47-5.38,2.21-8.46,2.21-4.54,0-8.41-1.62-11.62-4.87-3.21-3.25-4.81-7.19-4.81-11.83,0-4.97,1.81-9.11,5.44-12.43,3.18-2.88,6.84-4.33,10.97-4.33Zm.13,7.51c-2.47,0-4.52.86-6.16,2.59-1.64,1.73-2.46,3.93-2.46,6.62s.81,5.01,2.43,6.72c1.62,1.71,3.68,2.57,6.16,2.57s4.56-.87,6.21-2.6c1.65-1.73,2.48-3.97,2.48-6.7s-.81-4.95-2.43-6.65c-1.62-1.71-3.7-2.56-6.22-2.56Z" fill="#fff" stroke-width="0"/>
    <path d="m725.67,23.66l-4.92,4.94c-2-1.99-3.81-2.98-5.44-2.98-.89,0-1.59.19-2.09.57-.5.38-.76.85-.76,1.42,0,.43.16.82.48,1.18.32.36,1.11.85,2.37,1.48l2.91,1.46c3.06,1.52,5.17,3.07,6.31,4.65,1.14,1.58,1.72,3.43,1.72,5.56,0,2.83-1.03,5.19-3.1,7.08-2.06,1.89-4.83,2.84-8.3,2.84-4.62,0-8.3-1.81-11.05-5.44l4.89-5.35c.93,1.09,2.02,1.97,3.27,2.65,1.25.67,2.36,1.01,3.33,1.01,1.05,0,1.89-.25,2.53-.76s.96-1.09.96-1.75c0-1.23-1.15-2.43-3.46-3.6l-2.68-1.35c-5.12-2.59-7.68-5.84-7.68-9.74,0-2.51.96-4.66,2.89-6.45,1.93-1.78,4.4-2.68,7.4-2.68,2.06,0,3.99.45,5.8,1.36s3.35,2.21,4.61,3.9Z" fill="#fff" stroke-width="0"/>
    <path d="m732.54,6.94h7.88v15.5c1.55-1.34,3.11-2.35,4.68-3.03,1.57-.67,3.16-1.01,4.77-1.01,3.14,0,5.79,1.09,7.94,3.27,1.84,1.89,2.76,4.67,2.76,8.33v21.02h-7.82v-13.95c0-3.68-.17-6.18-.52-7.48-.35-1.31-.95-2.28-1.79-2.92-.84-.64-1.89-.96-3.13-.96-1.61,0-2.99.54-4.15,1.61-1.15,1.07-1.95,2.53-2.4,4.39-.23.95-.35,3.14-.35,6.55v12.78h-7.88V6.94Z" fill="#fff" stroke-width="0"/>
    <path d="m772.56,41.85c1.38,0,2.55.49,3.53,1.46.98.97,1.47,2.15,1.47,3.54s-.49,2.54-1.47,3.52-2.16,1.48-3.53,1.48-2.55-.49-3.52-1.46c-.97-.97-1.45-2.15-1.45-3.54s.48-2.56,1.45-3.54c.97-.97,2.14-1.46,3.52-1.46Zm-4.01-34.91h8.03v31.43h-8.03V6.94Z" fill="#fff" stroke-width="0"/>
  </g>
  <g>
    <path d="m417.61,110.85h1.72v17.26h-1.72v-17.26Z" fill="#fff" stroke-width="0"/>
    <path d="m424.42,110.6h1.63v4.74h2.59v1.42h-2.59v11.34h-1.63v-11.34h-2.23v-1.42h2.23v-4.74Z" fill="#fff" stroke-width="0"/>
    <path d="m444.09,116.74l-1.05,1.09c-.87-.85-1.73-1.28-2.56-1.28-.53,0-.98.18-1.36.53-.38.35-.57.76-.57,1.23,0,.41.16.81.47,1.18.31.38.97.83,1.96,1.35,1.22.63,2.04,1.24,2.48,1.83.43.59.64,1.26.64,2.01,0,1.05-.37,1.94-1.1,2.66-.73.73-1.65,1.09-2.75,1.09-.73,0-1.43-.16-2.1-.48s-1.22-.76-1.65-1.33l1.03-1.17c.83.95,1.72,1.42,2.66,1.42.65,0,1.21-.21,1.67-.63.46-.42.69-.92.69-1.49,0-.47-.15-.89-.46-1.26-.3-.36-.99-.81-2.06-1.36-1.15-.59-1.93-1.18-2.34-1.76s-.62-1.24-.62-1.98c0-.97.33-1.77.99-2.42s1.49-.96,2.5-.96c1.17,0,2.35.57,3.53,1.72Z" fill="#fff" stroke-width="0"/>
    <path d="m457.68,123.87l1.38.73c-.45.89-.97,1.61-1.57,2.16s-1.26.96-2,1.25-1.58.43-2.51.43c-2.07,0-3.69-.68-4.86-2.05-1.17-1.36-1.75-2.91-1.75-4.63,0-1.62.49-3.06,1.48-4.33,1.25-1.61,2.93-2.42,5.03-2.42s3.89.82,5.19,2.48c.92,1.16,1.39,2.62,1.4,4.36h-11.43c.03,1.48.5,2.7,1.41,3.65.91.95,2.04,1.42,3.38,1.42.65,0,1.27-.11,1.89-.34.61-.23,1.13-.53,1.56-.9.43-.37.89-.98,1.39-1.81Zm0-3.44c-.22-.88-.54-1.58-.95-2.1-.42-.52-.97-.95-1.65-1.27s-1.41-.48-2.16-.48c-1.25,0-2.32.4-3.21,1.21-.65.59-1.15,1.47-1.48,2.64h9.46Z" fill="#fff" stroke-width="0"/>
    <path d="m473.21,123.87l1.38.73c-.45.89-.97,1.61-1.57,2.16s-1.26.96-2,1.25-1.58.43-2.51.43c-2.07,0-3.69-.68-4.86-2.05-1.17-1.36-1.75-2.91-1.75-4.63,0-1.62.49-3.06,1.48-4.33,1.25-1.61,2.93-2.42,5.03-2.42s3.89.82,5.19,2.48c.92,1.16,1.39,2.62,1.4,4.36h-11.43c.03,1.48.5,2.7,1.41,3.65.91.95,2.04,1.42,3.38,1.42.65,0,1.27-.11,1.89-.34.61-.23,1.13-.53,1.56-.9.43-.37.89-.98,1.39-1.81Zm0-3.44c-.22-.88-.54-1.58-.95-2.1-.42-.52-.97-.95-1.65-1.27s-1.41-.48-2.16-.48c-1.25,0-2.32.4-3.21,1.21-.65.59-1.15,1.47-1.48,2.64h9.46Z" fill="#fff" stroke-width="0"/>
    <path d="m478.04,115.34h1.63v2.21c.57-.81,1.15-1.41,1.75-1.78.83-.5,1.69-.75,2.61-.75.62,0,1.2.12,1.75.36.55.24,1.01.56,1.36.97.35.4.65.98.91,1.73.54-1,1.22-1.76,2.04-2.28.81-.52,1.69-.78,2.63-.78.88,0,1.65.22,2.32.67.67.45,1.17,1.07,1.5,1.87.33.8.49,1.99.49,3.59v6.97h-1.67v-6.97c0-1.37-.1-2.31-.29-2.82-.19-.51-.53-.92-.99-1.24-.47-.31-1.03-.47-1.68-.47-.79,0-1.51.24-2.17.7-.66.47-1.13,1.1-1.44,1.88-.3.78-.45,2.09-.45,3.92v5h-1.63v-6.53c0-1.54-.1-2.59-.29-3.14-.19-.55-.52-.99-1-1.33-.47-.33-1.04-.5-1.69-.5-.75,0-1.46.23-2.12.69s-1.14,1.07-1.46,1.85c-.32.77-.47,1.96-.47,3.55v5.41h-1.63v-12.76Z" fill="#fff" stroke-width="0"/>
    <path d="m506.86,116.74l-1.05,1.09c-.87-.85-1.73-1.28-2.56-1.28-.53,0-.98.18-1.36.53-.38.35-.57.76-.57,1.23,0,.41.16.81.47,1.18.31.38.97.83,1.96,1.35,1.22.63,2.04,1.24,2.48,1.83.43.59.64,1.26.64,2.01,0,1.05-.37,1.94-1.1,2.66-.73.73-1.65,1.09-2.75,1.09-.73,0-1.43-.16-2.1-.48-.67-.32-1.22-.76-1.65-1.33l1.03-1.17c.83.95,1.72,1.42,2.66,1.42.65,0,1.21-.21,1.67-.63.46-.42.69-.92.69-1.49,0-.47-.15-.89-.46-1.26-.3-.36-.99-.81-2.06-1.36-1.15-.59-1.93-1.18-2.34-1.76s-.62-1.24-.62-1.98c0-.97.33-1.77.99-2.42s1.49-.96,2.5-.96c1.17,0,2.35.57,3.53,1.72Z" fill="#fff" stroke-width="0"/>
    <path d="m515,115.34h1.73l4.36,9.83,4.24-9.83h1.74l-7.57,17.43h-1.73l2.44-5.64-5.21-11.8Z" fill="#fff" stroke-width="0"/>
    <path d="m535.19,115.01c1.96,0,3.58.71,4.86,2.13,1.17,1.3,1.75,2.84,1.75,4.61s-.62,3.34-1.85,4.67c-1.24,1.33-2.82,2-4.76,2s-3.54-.67-4.78-2c-1.24-1.33-1.85-2.89-1.85-4.67s.58-3.3,1.75-4.6c1.29-1.43,2.91-2.15,4.88-2.15Zm0,1.61c-1.36,0-2.53.5-3.5,1.51-.98,1.01-1.46,2.23-1.46,3.66,0,.92.22,1.78.67,2.58s1.05,1.41,1.8,1.85c.76.43,1.59.65,2.49.65s1.74-.22,2.49-.65c.76-.43,1.36-1.05,1.8-1.85.44-.8.67-1.66.67-2.58,0-1.43-.49-2.65-1.47-3.66-.98-1.01-2.14-1.51-3.5-1.51Z" fill="#fff" stroke-width="0"/>
    <path d="m544.62,115.34h1.63v5.96c0,1.45.08,2.46.23,3,.23.78.68,1.4,1.34,1.85s1.44.68,2.36.68,1.68-.22,2.32-.66c.63-.44,1.07-1.02,1.31-1.74.16-.49.25-1.54.25-3.13v-5.96h1.67v6.26c0,1.76-.2,3.09-.61,3.98-.41.89-1.02,1.59-1.84,2.09-.82.5-1.85.76-3.09.76s-2.27-.25-3.1-.76c-.83-.5-1.45-1.21-1.86-2.11-.41-.9-.61-2.26-.61-4.08v-6.15Z" fill="#fff" stroke-width="0"/>
    <path d="m560.51,115.84h-1.2l-.26-5.43h1.73l-.27,5.43Z" fill="#fff" stroke-width="0"/>
    <path d="m562.89,115.34h1.74l4.26,9.3,4.21-9.3h1.75l-5.81,12.76h-.3l-5.85-12.76Z" fill="#fff" stroke-width="0"/>
    <path d="m588.03,123.87l1.38.73c-.45.89-.97,1.61-1.57,2.16-.59.55-1.26.96-2,1.25s-1.58.43-2.51.43c-2.07,0-3.69-.68-4.86-2.05-1.17-1.36-1.75-2.91-1.75-4.63,0-1.62.49-3.06,1.48-4.33,1.25-1.61,2.93-2.42,5.03-2.42s3.89.82,5.19,2.48c.92,1.16,1.39,2.62,1.4,4.36h-11.43c.03,1.48.5,2.7,1.41,3.65.91.95,2.04,1.42,3.38,1.42.65,0,1.27-.11,1.89-.34.61-.23,1.13-.53,1.56-.9.43-.37.89-.98,1.39-1.81Zm0-3.44c-.22-.88-.54-1.58-.95-2.1-.42-.52-.97-.95-1.65-1.27s-1.41-.48-2.16-.48c-1.25,0-2.32.4-3.21,1.21-.65.59-1.15,1.47-1.48,2.64h9.46Z" fill="#fff" stroke-width="0"/>
    <path d="m605.87,116.74l-1.05,1.09c-.87-.85-1.73-1.28-2.56-1.28-.53,0-.98.18-1.36.53-.38.35-.57.76-.57,1.23,0,.41.16.81.47,1.18.31.38.97.83,1.96,1.35,1.22.63,2.04,1.24,2.48,1.83.43.59.64,1.26.64,2.01,0,1.05-.37,1.94-1.1,2.66-.73.73-1.65,1.09-2.75,1.09-.73,0-1.43-.16-2.1-.48-.67-.32-1.22-.76-1.65-1.33l1.03-1.17c.83.95,1.72,1.42,2.66,1.42.65,0,1.21-.21,1.67-.63.46-.42.69-.92.69-1.49,0-.47-.15-.89-.46-1.26-.3-.36-.99-.81-2.06-1.36-1.15-.59-1.93-1.18-2.34-1.76s-.62-1.24-.62-1.98c0-.97.33-1.77.99-2.42.66-.64,1.49-.96,2.5-.96,1.17,0,2.35.57,3.53,1.72Z" fill="#fff" stroke-width="0"/>
    <path d="m610.19,110.6h1.63v4.74h2.59v1.42h-2.59v11.34h-1.63v-11.34h-2.23v-1.42h2.23v-4.74Z" fill="#fff" stroke-width="0"/>
    <path d="m616.66,115.34h1.63v5.96c0,1.45.08,2.46.23,3,.23.78.68,1.4,1.34,1.85s1.44.68,2.36.68,1.68-.22,2.32-.66c.63-.44,1.07-1.02,1.31-1.74.16-.49.25-1.54.25-3.13v-5.96h1.67v6.26c0,1.76-.2,3.09-.61,3.98-.41.89-1.02,1.59-1.84,2.09-.82.5-1.85.76-3.09.76s-2.27-.25-3.1-.76c-.83-.5-1.45-1.21-1.86-2.11-.41-.9-.61-2.26-.61-4.08v-6.15Z" fill="#fff" stroke-width="0"/>
    <path d="m631.39,115.34h1.63v2.21c.57-.81,1.15-1.41,1.75-1.78.83-.5,1.69-.75,2.61-.75.62,0,1.2.12,1.75.36.55.24,1.01.56,1.36.97.35.4.65.98.91,1.73.54-1,1.22-1.76,2.04-2.28.81-.52,1.69-.78,2.63-.78.88,0,1.65.22,2.32.67s1.17,1.07,1.5,1.87c.33.8.49,1.99.49,3.59v6.97h-1.67v-6.97c0-1.37-.1-2.31-.29-2.82-.19-.51-.53-.92-.99-1.24-.47-.31-1.03-.47-1.68-.47-.79,0-1.51.24-2.17.7-.66.47-1.13,1.1-1.44,1.88-.3.78-.45,2.09-.45,3.92v5h-1.63v-6.53c0-1.54-.1-2.59-.29-3.14-.19-.55-.52-.99-1-1.33-.47-.33-1.04-.5-1.69-.5-.75,0-1.46.23-2.12.69s-1.14,1.07-1.46,1.85c-.32.77-.47,1.96-.47,3.55v5.41h-1.63v-12.76Z" fill="#fff" stroke-width="0"/>
    <path d="m653.92,128.1v-17.69h1.63v7.12c.68-.84,1.45-1.48,2.3-1.89.85-.42,1.78-.63,2.79-.63,1.8,0,3.33.65,4.6,1.96s1.91,2.9,1.91,4.77-.64,3.42-1.92,4.73c-1.28,1.31-2.83,1.96-4.63,1.96-1.03,0-1.97-.22-2.81-.67-.84-.45-1.58-1.11-2.23-2.01v2.35h-1.63Zm6.54-1.26c.91,0,1.75-.22,2.52-.67.77-.45,1.38-1.08,1.83-1.89.45-.81.68-1.67.68-2.58s-.23-1.77-.69-2.59c-.46-.82-1.07-1.46-1.85-1.92-.77-.46-1.6-.69-2.47-.69s-1.74.23-2.54.69c-.8.46-1.42,1.07-1.85,1.85-.43.77-.65,1.65-.65,2.62,0,1.48.48,2.71,1.45,3.71.97.99,2.16,1.49,3.57,1.49Z" fill="#fff" stroke-width="0"/>
    <path d="m669.88,110.41h1.63v17.69h-1.63v-17.69Z" fill="#fff" stroke-width="0"/>
    <path d="m685.6,123.87l1.38.73c-.45.89-.97,1.61-1.57,2.16-.59.55-1.26.96-2,1.25s-1.58.43-2.51.43c-2.07,0-3.69-.68-4.86-2.05-1.17-1.36-1.75-2.91-1.75-4.63,0-1.62.49-3.06,1.48-4.33,1.25-1.61,2.93-2.42,5.03-2.42s3.89.82,5.19,2.48c.92,1.16,1.39,2.62,1.4,4.36h-11.43c.03,1.48.5,2.7,1.41,3.65.91.95,2.04,1.42,3.38,1.42.65,0,1.27-.11,1.89-.34.61-.23,1.13-.53,1.56-.9.43-.37.89-.98,1.39-1.81Zm0-3.44c-.22-.88-.54-1.58-.95-2.1-.42-.52-.97-.95-1.65-1.27s-1.41-.48-2.16-.48c-1.25,0-2.32.4-3.21,1.21-.65.59-1.15,1.47-1.48,2.64h9.46Z" fill="#fff" stroke-width="0"/>
    <path d="m703.11,110.41v17.69h-1.61v-2.19c-.68.84-1.45,1.47-2.31,1.89-.85.42-1.78.63-2.8.63-1.8,0-3.33-.65-4.6-1.96s-1.91-2.9-1.91-4.78.64-3.41,1.93-4.72c1.28-1.31,2.83-1.96,4.63-1.96,1.04,0,1.99.22,2.83.67s1.59,1.11,2.22,2.01v-7.27h1.61Zm-6.53,6.18c-.91,0-1.75.22-2.52.67-.77.45-1.38,1.08-1.84,1.89-.45.81-.68,1.67-.68,2.58s.23,1.76.69,2.58c.46.82,1.07,1.46,1.85,1.92.77.46,1.6.69,2.49.69s1.74-.23,2.54-.68c.8-.45,1.42-1.07,1.85-1.84.43-.77.65-1.64.65-2.61,0-1.48-.48-2.71-1.45-3.7-.97-.99-2.16-1.49-3.57-1.49Z" fill="#fff" stroke-width="0"/>
    <path d="m713.22,115.34h1.63v5.96c0,1.45.08,2.46.23,3,.23.78.68,1.4,1.34,1.85s1.44.68,2.36.68,1.68-.22,2.32-.66c.63-.44,1.07-1.02,1.31-1.74.16-.49.25-1.54.25-3.13v-5.96h1.67v6.26c0,1.76-.2,3.09-.61,3.98-.41.89-1.02,1.59-1.84,2.09-.82.5-1.85.76-3.09.76s-2.27-.25-3.1-.76c-.83-.5-1.45-1.21-1.86-2.11-.41-.9-.61-2.26-.61-4.08v-6.15Z" fill="#fff" stroke-width="0"/>
    <path d="m727.98,115.34h1.63v2.35c.65-.89,1.39-1.56,2.23-2.01.84-.45,1.78-.67,2.81-.67,1.8,0,3.35.65,4.63,1.96,1.28,1.31,1.92,2.88,1.92,4.72s-.64,3.47-1.91,4.78c-1.27,1.31-2.8,1.96-4.6,1.96-1.01,0-1.94-.21-2.79-.63-.85-.42-1.61-1.05-2.3-1.89v6.86h-1.63v-17.43Zm6.54,1.26c-1.41,0-2.6.5-3.57,1.49-.97.99-1.45,2.23-1.45,3.7,0,.97.22,1.84.65,2.61.43.77,1.05,1.39,1.85,1.84.8.45,1.65.68,2.54.68s1.7-.23,2.47-.69c.77-.46,1.39-1.1,1.85-1.92.46-.82.69-1.68.69-2.58s-.23-1.77-.68-2.58c-.45-.81-1.07-1.44-1.83-1.89-.77-.45-1.61-.67-2.52-.67Z" fill="#fff" stroke-width="0"/>
    <path d="m750.28,115.01c1.96,0,3.58.71,4.86,2.13,1.17,1.3,1.75,2.84,1.75,4.61s-.62,3.34-1.85,4.67c-1.24,1.33-2.82,2-4.76,2s-3.54-.67-4.78-2c-1.24-1.33-1.85-2.89-1.85-4.67s.58-3.3,1.75-4.6c1.29-1.43,2.91-2.15,4.88-2.15Zm0,1.61c-1.36,0-2.53.5-3.5,1.51-.98,1.01-1.46,2.23-1.46,3.66,0,.92.22,1.78.67,2.58s1.05,1.41,1.8,1.85c.76.43,1.59.65,2.49.65s1.74-.22,2.49-.65c.76-.43,1.36-1.05,1.8-1.85.44-.8.67-1.66.67-2.58,0-1.43-.49-2.65-1.47-3.66-.98-1.01-2.14-1.51-3.5-1.51Z" fill="#fff" stroke-width="0"/>
    <path d="m759.92,115.34h1.63v2.29c.65-.88,1.38-1.53,2.17-1.96.79-.43,1.66-.65,2.59-.65s1.79.24,2.53.73c.73.48,1.28,1.14,1.63,1.96.35.82.53,2.1.53,3.84v6.57h-1.63v-6.09c0-1.47-.06-2.45-.18-2.94-.19-.84-.55-1.48-1.09-1.91-.54-.43-1.24-.64-2.1-.64-.99,0-1.87.33-2.66.99-.78.66-1.3,1.47-1.55,2.44-.16.63-.23,1.79-.23,3.47v4.68h-1.63v-12.76Z" fill="#fff" stroke-width="0"/>
    <path d="m782.53,110.6h1.63v4.74h2.59v1.42h-2.59v11.34h-1.63v-11.34h-2.23v-1.42h2.23v-4.74Z" fill="#fff" stroke-width="0"/>
    <path d="m789.21,110.41h1.63v7.21c.66-.88,1.39-1.53,2.18-1.96s1.65-.65,2.58-.65,1.79.24,2.53.73c.73.48,1.28,1.14,1.63,1.95.35.82.53,2.1.53,3.84v6.57h-1.63v-6.09c0-1.47-.06-2.45-.17-2.94-.2-.84-.57-1.48-1.1-1.91-.53-.43-1.23-.64-2.09-.64-.99,0-1.87.33-2.66.99-.78.66-1.3,1.47-1.55,2.44-.16.63-.23,1.78-.23,3.47v4.68h-1.63v-17.69Z" fill="#fff" stroke-width="0"/>
    <path d="m814.48,123.87l1.38.73c-.45.89-.97,1.61-1.57,2.16s-1.26.96-2,1.25-1.58.43-2.51.43c-2.07,0-3.69-.68-4.86-2.05-1.17-1.36-1.75-2.91-1.75-4.63,0-1.62.49-3.06,1.48-4.33,1.25-1.61,2.93-2.42,5.03-2.42s3.89.82,5.19,2.48c.92,1.16,1.39,2.62,1.4,4.36h-11.43c.03,1.48.5,2.7,1.41,3.65.91.95,2.04,1.42,3.38,1.42.65,0,1.27-.11,1.89-.34.61-.23,1.13-.53,1.56-.9.43-.37.89-.98,1.39-1.81Zm0-3.44c-.22-.88-.54-1.58-.95-2.1-.42-.52-.97-.95-1.65-1.27s-1.41-.48-2.16-.48c-1.25,0-2.32.4-3.21,1.21-.65.59-1.15,1.47-1.48,2.64h9.46Z" fill="#fff" stroke-width="0"/>
    <path d="m357.94,144.17h1.63v2.21c.57-.81,1.15-1.41,1.75-1.78.83-.5,1.69-.75,2.61-.75.62,0,1.2.12,1.75.36.55.24,1.01.56,1.36.97.35.4.65.98.91,1.73.54-1,1.22-1.76,2.04-2.28.81-.52,1.69-.78,2.63-.78.88,0,1.65.22,2.32.67s1.17,1.07,1.5,1.87c.33.8.49,1.99.49,3.59v6.97h-1.67v-6.97c0-1.37-.1-2.31-.29-2.82-.19-.51-.53-.92-.99-1.24-.47-.31-1.03-.47-1.68-.47-.79,0-1.51.24-2.17.7-.66.47-1.13,1.1-1.44,1.88-.3.78-.45,2.09-.45,3.92v5h-1.63v-6.53c0-1.54-.1-2.59-.29-3.14-.19-.55-.52-.99-1-1.33-.47-.33-1.04-.5-1.69-.5-.75,0-1.46.23-2.12.69s-1.14,1.07-1.46,1.85c-.32.77-.47,1.96-.47,3.55v5.41h-1.63v-12.76Z" fill="#fff" stroke-width="0"/>
    <path d="m379.01,144.17h1.73l4.36,9.83,4.24-9.83h1.74l-7.57,17.43h-1.73l2.44-5.64-5.21-11.8Z" fill="#fff" stroke-width="0"/>
    <path d="m399.57,145.57l-1.05,1.09c-.87-.85-1.73-1.28-2.56-1.28-.53,0-.98.18-1.36.53-.38.35-.57.76-.57,1.23,0,.41.16.81.47,1.18.31.38.97.83,1.96,1.35,1.22.63,2.04,1.24,2.48,1.83.43.59.64,1.26.64,2.01,0,1.05-.37,1.94-1.1,2.66-.73.73-1.65,1.09-2.75,1.09-.73,0-1.43-.16-2.1-.48s-1.22-.76-1.65-1.33l1.03-1.17c.83.95,1.72,1.42,2.66,1.42.65,0,1.21-.21,1.67-.63.46-.42.69-.92.69-1.49,0-.47-.15-.89-.46-1.26-.3-.36-.99-.81-2.06-1.36-1.15-.59-1.93-1.18-2.34-1.76s-.62-1.24-.62-1.98c0-.97.33-1.77.99-2.42s1.49-.96,2.5-.96c1.17,0,2.35.57,3.53,1.72Z" fill="#fff" stroke-width="0"/>
    <path d="m403.89,139.43h1.63v4.74h2.59v1.42h-2.59v11.34h-1.63v-11.34h-2.23v-1.42h2.23v-4.74Z" fill="#fff" stroke-width="0"/>
    <path d="m411.13,138.91c.37,0,.69.13.95.4s.39.59.39.96-.13.68-.39.95c-.26.27-.58.4-.95.4s-.68-.13-.94-.4c-.26-.27-.39-.58-.39-.95s.13-.7.39-.96.58-.4.94-.4Zm-.81,5.26h1.63v12.76h-1.63v-12.76Z" fill="#fff" stroke-width="0"/>
    <path d="m427.68,146.82l-1.3.81c-1.12-1.49-2.65-2.24-4.58-2.24-1.55,0-2.83.5-3.85,1.5-1.02,1-1.53,2.21-1.53,3.64,0,.93.24,1.8.7,2.62.47.82,1.12,1.46,1.94,1.91.82.45,1.74.68,2.76.68,1.86,0,3.39-.75,4.57-2.24l1.3.86c-.61.92-1.42,1.63-2.44,2.14-1.02.51-2.19.76-3.5.76-2.01,0-3.67-.64-5-1.92-1.32-1.28-1.98-2.84-1.98-4.68,0-1.24.31-2.38.93-3.44.62-1.06,1.47-1.89,2.55-2.48s2.29-.89,3.63-.89c.84,0,1.65.13,2.43.39.78.26,1.45.59,1.99,1.01.54.41,1.01.94,1.39,1.58Z" fill="#fff" stroke-width="0"/>
    <path d="m443.47,144.17v12.76h-1.61v-2.19c-.68.84-1.45,1.47-2.31,1.89-.85.42-1.78.63-2.8.63-1.8,0-3.33-.65-4.6-1.96-1.27-1.31-1.91-2.9-1.91-4.78s.64-3.41,1.93-4.72c1.28-1.31,2.83-1.96,4.63-1.96,1.04,0,1.99.22,2.83.67.84.45,1.58,1.11,2.22,2.01v-2.35h1.61Zm-6.53,1.26c-.91,0-1.75.22-2.52.67-.77.45-1.38,1.08-1.84,1.89-.45.81-.68,1.67-.68,2.58s.23,1.76.69,2.58c.46.82,1.08,1.46,1.85,1.92.77.46,1.6.69,2.49.69s1.74-.23,2.54-.68c.8-.45,1.42-1.07,1.85-1.84s.65-1.64.65-2.61c0-1.48-.48-2.71-1.45-3.7-.97-.99-2.16-1.49-3.57-1.49Z" fill="#fff" stroke-width="0"/>
    <path d="m446.9,139.24h1.63v17.69h-1.63v-17.69Z" fill="#fff" stroke-width="0"/>
    <path d="m457.93,144.17h1.67v1.86c.5-.73,1.02-1.28,1.58-1.65.55-.36,1.13-.55,1.73-.55.45,0,.93.14,1.45.43l-.85,1.38c-.34-.15-.63-.22-.86-.22-.54,0-1.07.23-1.58.67-.51.45-.89,1.15-1.16,2.09-.2.73-.3,2.2-.3,4.41v4.32h-1.67v-12.76Z" fill="#fff" stroke-width="0"/>
    <path d="m476.43,152.7l1.38.73c-.45.89-.97,1.61-1.57,2.16-.59.55-1.26.96-2,1.25s-1.58.43-2.51.43c-2.07,0-3.69-.68-4.86-2.05-1.17-1.36-1.75-2.91-1.75-4.63,0-1.62.49-3.06,1.48-4.33,1.25-1.61,2.93-2.42,5.03-2.42s3.89.82,5.19,2.48c.92,1.16,1.39,2.62,1.4,4.36h-11.43c.03,1.48.5,2.7,1.41,3.65.91.95,2.04,1.42,3.38,1.42.65,0,1.27-.11,1.89-.34s1.13-.53,1.56-.9c.43-.37.89-.98,1.39-1.81Zm0-3.44c-.22-.88-.54-1.58-.95-2.1-.42-.52-.97-.95-1.65-1.27-.69-.32-1.41-.48-2.16-.48-1.25,0-2.32.4-3.21,1.21-.65.59-1.15,1.47-1.48,2.64h9.46Z" fill="#fff" stroke-width="0"/>
    <path d="m493.92,144.17v12.76h-1.61v-2.19c-.68.84-1.45,1.47-2.31,1.89-.85.42-1.78.63-2.8.63-1.8,0-3.33-.65-4.6-1.96-1.27-1.31-1.91-2.9-1.91-4.78s.64-3.41,1.93-4.72c1.28-1.31,2.83-1.96,4.63-1.96,1.04,0,1.99.22,2.83.67.84.45,1.58,1.11,2.22,2.01v-2.35h1.61Zm-6.53,1.26c-.91,0-1.75.22-2.52.67-.77.45-1.38,1.08-1.84,1.89-.45.81-.68,1.67-.68,2.58s.23,1.76.69,2.58c.46.82,1.08,1.46,1.85,1.92.77.46,1.6.69,2.49.69s1.74-.23,2.54-.68c.8-.45,1.42-1.07,1.85-1.84s.65-1.64.65-2.61c0-1.48-.48-2.71-1.45-3.7-.97-.99-2.16-1.49-3.57-1.49Z" fill="#fff" stroke-width="0"/>
    <path d="m497.35,139.24h1.63v17.69h-1.63v-17.69Z" fill="#fff" stroke-width="0"/>
    <path d="m502.37,144.17h1.63v2.21c.57-.81,1.15-1.41,1.75-1.78.83-.5,1.69-.75,2.61-.75.62,0,1.2.12,1.75.36.55.24,1.01.56,1.36.97.35.4.65.98.91,1.73.54-1,1.22-1.76,2.04-2.28.81-.52,1.69-.78,2.63-.78.88,0,1.65.22,2.32.67s1.17,1.07,1.5,1.87c.33.8.49,1.99.49,3.59v6.97h-1.67v-6.97c0-1.37-.1-2.31-.29-2.82-.19-.51-.53-.92-.99-1.24-.47-.31-1.03-.47-1.68-.47-.79,0-1.51.24-2.17.7-.66.47-1.13,1.1-1.44,1.88-.3.78-.45,2.09-.45,3.92v5h-1.63v-6.53c0-1.54-.1-2.59-.29-3.14-.19-.55-.52-.99-1-1.33-.47-.33-1.04-.5-1.69-.5-.75,0-1.46.23-2.12.69s-1.14,1.07-1.46,1.85c-.32.77-.47,1.96-.47,3.55v5.41h-1.63v-12.76Z" fill="#fff" stroke-width="0"/>
    <path d="m529.7,144.17h1.68l3.89,9.27,4.05-9.27h.3l4.08,9.27,3.97-9.27h1.7l-5.52,12.76h-.3l-4.06-9.14-4.06,9.14h-.3l-5.42-12.76Z" fill="#fff" stroke-width="0"/>
    <path d="m551.28,139.24h1.63v7.21c.66-.88,1.39-1.53,2.18-1.96s1.65-.65,2.58-.65,1.79.24,2.53.73c.73.48,1.28,1.14,1.63,1.95.35.82.53,2.1.53,3.84v6.57h-1.63v-6.09c0-1.47-.06-2.45-.17-2.94-.2-.84-.57-1.48-1.1-1.91-.53-.43-1.23-.64-2.09-.64-.99,0-1.87.33-2.66.99-.78.66-1.3,1.47-1.55,2.44-.16.63-.23,1.78-.23,3.47v4.68h-1.63v-17.69Z" fill="#fff" stroke-width="0"/>
    <path d="m576.55,152.7l1.38.73c-.45.89-.97,1.61-1.57,2.16s-1.26.96-2,1.25-1.58.43-2.51.43c-2.07,0-3.69-.68-4.86-2.05-1.17-1.36-1.75-2.91-1.75-4.63,0-1.62.49-3.06,1.48-4.33,1.25-1.61,2.93-2.42,5.03-2.42s3.89.82,5.19,2.48c.92,1.16,1.39,2.62,1.4,4.36h-11.43c.03,1.48.5,2.7,1.41,3.65.91.95,2.04,1.42,3.38,1.42.65,0,1.27-.11,1.89-.34s1.13-.53,1.56-.9c.43-.37.89-.98,1.39-1.81Zm0-3.44c-.22-.88-.54-1.58-.95-2.1-.42-.52-.97-.95-1.65-1.27s-1.41-.48-2.16-.48c-1.25,0-2.32.4-3.21,1.21-.65.59-1.15,1.47-1.48,2.64h9.46Z" fill="#fff" stroke-width="0"/>
    <path d="m580.77,144.17h1.67v1.86c.5-.73,1.02-1.28,1.58-1.65.55-.36,1.13-.55,1.73-.55.45,0,.93.14,1.45.43l-.85,1.38c-.34-.15-.63-.22-.86-.22-.54,0-1.07.23-1.58.67-.51.45-.89,1.15-1.16,2.09-.2.73-.3,2.2-.3,4.41v4.32h-1.67v-12.76Z" fill="#fff" stroke-width="0"/>
    <path d="m599.27,152.7l1.38.73c-.45.89-.97,1.61-1.57,2.16s-1.26.96-2,1.25-1.58.43-2.51.43c-2.07,0-3.69-.68-4.86-2.05-1.17-1.36-1.75-2.91-1.75-4.63,0-1.62.49-3.06,1.48-4.33,1.25-1.61,2.93-2.42,5.03-2.42s3.89.82,5.19,2.48c.92,1.16,1.39,2.62,1.4,4.36h-11.43c.03,1.48.5,2.7,1.41,3.65.91.95,2.04,1.42,3.38,1.42.65,0,1.27-.11,1.89-.34s1.13-.53,1.56-.9c.43-.37.89-.98,1.39-1.81Zm0-3.44c-.22-.88-.54-1.58-.95-2.1-.42-.52-.97-.95-1.65-1.27-.69-.32-1.41-.48-2.16-.48-1.25,0-2.32.4-3.21,1.21-.65.59-1.15,1.47-1.48,2.64h9.46Z" fill="#fff" stroke-width="0"/>
    <path d="m610.73,144.17h1.63v2.29c.65-.88,1.38-1.53,2.17-1.96.79-.43,1.66-.65,2.59-.65s1.79.24,2.53.73c.73.48,1.28,1.14,1.63,1.96.35.82.53,2.1.53,3.84v6.57h-1.63v-6.09c0-1.47-.06-2.45-.18-2.94-.19-.84-.55-1.48-1.09-1.91-.54-.43-1.24-.64-2.1-.64-.99,0-1.87.33-2.66.99-.78.66-1.3,1.47-1.55,2.44-.16.63-.23,1.79-.23,3.47v4.68h-1.63v-12.76Z" fill="#fff" stroke-width="0"/>
    <path d="m631.32,143.84c1.96,0,3.58.71,4.86,2.13,1.17,1.3,1.75,2.84,1.75,4.61s-.62,3.34-1.85,4.67c-1.24,1.33-2.82,2-4.76,2s-3.54-.67-4.78-2c-1.24-1.33-1.85-2.89-1.85-4.67s.58-3.3,1.75-4.6c1.29-1.43,2.91-2.15,4.88-2.15Zm0,1.61c-1.36,0-2.53.5-3.5,1.51-.98,1.01-1.46,2.23-1.46,3.66,0,.92.22,1.78.67,2.58s1.05,1.41,1.8,1.85c.76.43,1.59.65,2.49.65s1.74-.22,2.49-.65c.76-.43,1.36-1.05,1.8-1.85.44-.8.67-1.66.67-2.58,0-1.43-.49-2.65-1.47-3.66-.98-1.01-2.14-1.51-3.5-1.51Z" fill="#fff" stroke-width="0"/>
    <path d="m647.6,144.17h1.63v2.35c.65-.89,1.39-1.56,2.23-2.01.84-.45,1.78-.67,2.81-.67,1.8,0,3.35.65,4.63,1.96,1.28,1.31,1.92,2.88,1.92,4.72s-.64,3.47-1.91,4.78c-1.27,1.31-2.8,1.96-4.6,1.96-1.01,0-1.94-.21-2.79-.63-.85-.42-1.61-1.05-2.3-1.89v6.86h-1.63v-17.43Zm6.54,1.26c-1.41,0-2.6.5-3.57,1.49-.97.99-1.45,2.23-1.45,3.7,0,.97.22,1.84.65,2.61.43.77,1.05,1.39,1.85,1.84.8.45,1.65.68,2.54.68s1.7-.23,2.47-.69c.77-.46,1.39-1.1,1.85-1.92.46-.82.69-1.68.69-2.58s-.23-1.77-.68-2.58c-.45-.81-1.07-1.44-1.83-1.89-.77-.45-1.61-.67-2.52-.67Z" fill="#fff" stroke-width="0"/>
    <path d="m676.53,144.17v12.76h-1.61v-2.19c-.68.84-1.45,1.47-2.31,1.89-.85.42-1.78.63-2.8.63-1.8,0-3.33-.65-4.6-1.96-1.27-1.31-1.91-2.9-1.91-4.78s.64-3.41,1.93-4.72c1.28-1.31,2.83-1.96,4.63-1.96,1.04,0,1.99.22,2.83.67.84.45,1.58,1.11,2.22,2.01v-2.35h1.61Zm-6.53,1.26c-.91,0-1.75.22-2.52.67-.77.45-1.38,1.08-1.84,1.89-.45.81-.68,1.67-.68,2.58s.23,1.76.69,2.58c.46.82,1.08,1.46,1.85,1.92.77.46,1.6.69,2.49.69s1.74-.23,2.54-.68c.8-.45,1.42-1.07,1.85-1.84s.65-1.64.65-2.61c0-1.48-.48-2.71-1.45-3.7-.97-.99-2.16-1.49-3.57-1.49Z" fill="#fff" stroke-width="0"/>
    <path d="m691.16,144.17h1.63v10.17c0,1.79-.16,3.1-.47,3.93-.43,1.17-1.17,2.08-2.23,2.71-1.06.63-2.33.95-3.82.95-1.09,0-2.07-.15-2.94-.46s-1.57-.73-2.12-1.25c-.54-.52-1.05-1.28-1.51-2.29h1.77c.48.84,1.11,1.47,1.87,1.88.76.41,1.71.61,2.84.61s2.05-.21,2.82-.63,1.31-.94,1.64-1.57c.33-.63.49-1.65.49-3.06v-.66c-.62.78-1.37,1.38-2.25,1.8-.89.42-1.83.63-2.83.63-1.17,0-2.27-.29-3.29-.87-1.03-.58-1.82-1.37-2.38-2.35-.56-.99-.84-2.07-.84-3.25s.29-2.28.88-3.3c.58-1.02,1.39-1.83,2.42-2.42,1.03-.59,2.12-.89,3.27-.89.95,0,1.84.2,2.66.59.82.39,1.61,1.05,2.38,1.95v-2.22Zm-4.82,1.26c-.93,0-1.79.22-2.58.67-.79.45-1.42,1.07-1.87,1.86-.45.79-.68,1.65-.68,2.58,0,1.4.47,2.56,1.4,3.47.93.92,2.14,1.37,3.63,1.37s2.71-.45,3.62-1.36c.91-.91,1.37-2.1,1.37-3.58,0-.96-.21-1.82-.63-2.58s-1.02-1.35-1.79-1.79c-.77-.44-1.6-.66-2.49-.66Z" fill="#fff" stroke-width="0"/>
    <path d="m706.98,152.7l1.38.73c-.45.89-.97,1.61-1.57,2.16-.59.55-1.26.96-2,1.25s-1.58.43-2.51.43c-2.07,0-3.69-.68-4.86-2.05-1.17-1.36-1.75-2.91-1.75-4.63,0-1.62.49-3.06,1.48-4.33,1.25-1.61,2.93-2.42,5.03-2.42s3.89.82,5.19,2.48c.92,1.16,1.39,2.62,1.4,4.36h-11.43c.03,1.48.5,2.7,1.41,3.65.91.95,2.04,1.42,3.38,1.42.65,0,1.27-.11,1.89-.34s1.13-.53,1.56-.9c.43-.37.89-.98,1.39-1.81Zm0-3.44c-.22-.88-.54-1.58-.95-2.1-.42-.52-.97-.95-1.65-1.27-.69-.32-1.41-.48-2.16-.48-1.25,0-2.32.4-3.21,1.21-.65.59-1.15,1.47-1.48,2.64h9.46Z" fill="#fff" stroke-width="0"/>
    <path d="m730.77,146.82l-1.3.81c-1.12-1.49-2.65-2.24-4.58-2.24-1.55,0-2.83.5-3.85,1.5-1.02,1-1.53,2.21-1.53,3.64,0,.93.24,1.8.7,2.62.47.82,1.12,1.46,1.94,1.91.82.45,1.74.68,2.76.68,1.86,0,3.39-.75,4.57-2.24l1.3.86c-.61.92-1.42,1.63-2.44,2.14-1.02.51-2.19.76-3.5.76-2.01,0-3.67-.64-5-1.92-1.32-1.28-1.98-2.84-1.98-4.68,0-1.24.31-2.38.93-3.44.62-1.06,1.47-1.89,2.55-2.48s2.29-.89,3.63-.89c.84,0,1.65.13,2.43.39.78.26,1.45.59,1.99,1.01.54.41,1.01.94,1.39,1.58Z" fill="#fff" stroke-width="0"/>
    <path d="m746.56,144.17v12.76h-1.61v-2.19c-.68.84-1.45,1.47-2.31,1.89-.85.42-1.78.63-2.8.63-1.8,0-3.33-.65-4.6-1.96-1.27-1.31-1.91-2.9-1.91-4.78s.64-3.41,1.93-4.72c1.28-1.31,2.83-1.96,4.63-1.96,1.04,0,1.99.22,2.83.67.84.45,1.58,1.11,2.22,2.01v-2.35h1.61Zm-6.53,1.26c-.91,0-1.75.22-2.52.67-.77.45-1.38,1.08-1.84,1.89-.45.81-.68,1.67-.68,2.58s.23,1.76.69,2.58c.46.82,1.08,1.46,1.85,1.92.77.46,1.6.69,2.49.69s1.74-.23,2.54-.68c.8-.45,1.42-1.07,1.85-1.84s.65-1.64.65-2.61c0-1.48-.48-2.71-1.45-3.7-.97-.99-2.16-1.49-3.57-1.49Z" fill="#fff" stroke-width="0"/>
    <path d="m750.23,144.17h1.63v2.29c.65-.88,1.38-1.53,2.17-1.96.79-.43,1.66-.65,2.59-.65s1.79.24,2.53.73c.73.48,1.28,1.14,1.63,1.96.35.82.53,2.1.53,3.84v6.57h-1.63v-6.09c0-1.47-.06-2.45-.18-2.94-.19-.84-.55-1.48-1.09-1.91-.54-.43-1.24-.64-2.1-.64-.99,0-1.87.33-2.66.99-.78.66-1.3,1.47-1.55,2.44-.16.63-.23,1.79-.23,3.47v4.68h-1.63v-12.76Z" fill="#fff" stroke-width="0"/>
    <path d="m771.53,156.93v-17.69h1.63v7.12c.68-.84,1.45-1.48,2.3-1.89.85-.42,1.78-.63,2.79-.63,1.8,0,3.33.65,4.6,1.96s1.91,2.9,1.91,4.77-.64,3.42-1.92,4.73c-1.28,1.31-2.83,1.96-4.63,1.96-1.03,0-1.97-.22-2.81-.67-.84-.45-1.58-1.11-2.23-2.01v2.35h-1.63Zm6.54-1.26c.91,0,1.75-.22,2.52-.67.77-.45,1.38-1.08,1.83-1.89.45-.81.68-1.67.68-2.58s-.23-1.77-.69-2.59c-.46-.82-1.07-1.46-1.85-1.92-.77-.46-1.6-.69-2.47-.69s-1.74.23-2.54.69c-.8.46-1.42,1.07-1.85,1.85-.43.77-.65,1.65-.65,2.62,0,1.48.48,2.71,1.45,3.71.97.99,2.16,1.49,3.57,1.49Z" fill="#fff" stroke-width="0"/>
    <path d="m798.42,152.7l1.38.73c-.45.89-.97,1.61-1.57,2.16s-1.26.96-2,1.25-1.58.43-2.51.43c-2.07,0-3.69-.68-4.86-2.05-1.17-1.36-1.75-2.91-1.75-4.63,0-1.62.49-3.06,1.48-4.33,1.25-1.61,2.93-2.42,5.03-2.42s3.89.82,5.19,2.48c.92,1.16,1.39,2.62,1.4,4.36h-11.43c.03,1.48.5,2.7,1.41,3.65.91.95,2.04,1.42,3.38,1.42.65,0,1.27-.11,1.89-.34s1.13-.53,1.56-.9c.43-.37.89-.98,1.39-1.81Zm0-3.44c-.22-.88-.54-1.58-.95-2.1-.42-.52-.97-.95-1.65-1.27s-1.41-.48-2.16-.48c-1.25,0-2.32.4-3.21,1.21-.65.59-1.15,1.47-1.48,2.64h9.46Z" fill="#fff" stroke-width="0"/>
    <path d="m815.11,139.24v1.61c-.6-.26-1.11-.39-1.54-.39-.32,0-.58.06-.79.19-.21.13-.34.28-.4.45s-.08.62-.08,1.34v1.72s2.65,0,2.65,0v1.42h-2.65v11.34h-1.64v-11.34h-1.67v-1.42h1.67v-1.99c0-.92.08-1.57.25-1.96s.45-.71.85-.94c.4-.24.88-.36,1.45-.36.53,0,1.16.11,1.9.33Z" fill="#fff" stroke-width="0"/>
    <path d="m823.4,143.84c1.96,0,3.58.71,4.86,2.13,1.17,1.3,1.75,2.84,1.75,4.61s-.62,3.34-1.85,4.67c-1.24,1.33-2.82,2-4.76,2s-3.54-.67-4.78-2c-1.24-1.33-1.85-2.89-1.85-4.67s.58-3.3,1.75-4.6c1.29-1.43,2.91-2.15,4.88-2.15Zm0,1.61c-1.36,0-2.53.5-3.5,1.51-.98,1.01-1.46,2.23-1.46,3.66,0,.92.22,1.78.67,2.58.45.8,1.05,1.41,1.8,1.85.76.43,1.59.65,2.49.65s1.74-.22,2.49-.65c.76-.43,1.36-1.05,1.8-1.85.44-.8.67-1.66.67-2.58,0-1.43-.49-2.65-1.47-3.66-.98-1.01-2.14-1.51-3.5-1.51Z" fill="#fff" stroke-width="0"/>
    <path d="m832.83,144.17h1.63v5.96c0,1.45.08,2.46.23,3,.23.78.68,1.4,1.34,1.85.66.45,1.44.68,2.36.68s1.68-.22,2.32-.66c.63-.44,1.07-1.02,1.31-1.74.16-.49.25-1.54.25-3.13v-5.96h1.67v6.26c0,1.76-.2,3.09-.61,3.98-.41.89-1.02,1.59-1.84,2.09-.82.5-1.85.76-3.09.76s-2.27-.25-3.1-.76c-.83-.5-1.45-1.21-1.86-2.11-.41-.9-.61-2.26-.61-4.08v-6.15Z" fill="#fff" stroke-width="0"/>
    <path d="m847.57,144.17h1.63v2.29c.65-.88,1.38-1.53,2.17-1.96.79-.43,1.66-.65,2.59-.65s1.79.24,2.53.73c.73.48,1.28,1.14,1.63,1.96.35.82.53,2.1.53,3.84v6.57h-1.63v-6.09c0-1.47-.06-2.45-.18-2.94-.19-.84-.55-1.48-1.09-1.91s-1.24-.64-2.1-.64c-.99,0-1.87.33-2.66.99-.78.66-1.3,1.47-1.55,2.44-.16.63-.23,1.79-.23,3.47v4.68h-1.63v-12.76Z" fill="#fff" stroke-width="0"/>
    <path d="m874.82,139.24v17.69h-1.61v-2.19c-.68.84-1.45,1.47-2.31,1.89-.85.42-1.78.63-2.8.63-1.8,0-3.33-.65-4.6-1.96s-1.91-2.9-1.91-4.78.64-3.41,1.93-4.72c1.28-1.31,2.83-1.96,4.63-1.96,1.04,0,1.99.22,2.83.67s1.59,1.11,2.22,2.01v-7.27h1.61Zm-6.53,6.18c-.91,0-1.75.22-2.52.67-.77.45-1.38,1.08-1.84,1.89-.45.81-.68,1.67-.68,2.58s.23,1.76.69,2.58c.46.82,1.07,1.46,1.85,1.92.77.46,1.6.69,2.49.69s1.74-.23,2.54-.68c.8-.45,1.42-1.07,1.85-1.84.43-.77.65-1.64.65-2.61,0-1.48-.48-2.71-1.45-3.7-.97-.99-2.16-1.49-3.57-1.49Z" fill="#fff" stroke-width="0"/>
    <path d="m880.22,154.35c.4,0,.73.14,1.01.42.28.28.42.63.42,1.03s-.14.74-.42,1.03c-.28.29-.62.43-1.01.43s-.74-.14-1.02-.43c-.28-.29-.42-.63-.42-1.03s.14-.75.42-1.03c.28-.28.62-.42,1.02-.42Zm.83-15.11v13.37h-1.69v-13.37h1.69Z" fill="#fff" stroke-width="0"/>
    <path d="m405.85,197.34h1.72v15.59h6.61v1.67h-8.32v-17.26Z" fill="#fff" stroke-width="0"/>
    <path d="m427.32,210.36l1.38.73c-.45.89-.97,1.61-1.57,2.16s-1.26.96-2,1.25-1.58.43-2.51.43c-2.07,0-3.69-.68-4.86-2.05-1.17-1.36-1.75-2.91-1.75-4.63,0-1.62.49-3.06,1.48-4.33,1.25-1.61,2.93-2.42,5.03-2.42s3.89.82,5.19,2.48c.92,1.16,1.39,2.62,1.4,4.36h-11.43c.03,1.48.5,2.7,1.41,3.65.91.95,2.04,1.42,3.38,1.42.65,0,1.27-.11,1.89-.34s1.13-.53,1.56-.9c.43-.37.89-.98,1.39-1.81Zm0-3.44c-.22-.88-.54-1.58-.95-2.1-.42-.52-.97-.95-1.65-1.27s-1.41-.48-2.16-.48c-1.25,0-2.32.4-3.21,1.21-.65.59-1.15,1.47-1.48,2.64h9.46Z" fill="#fff" stroke-width="0"/>
    <path d="m433.58,197.09h1.63v4.74h2.59v1.42h-2.59v11.34h-1.63v-11.34h-2.23v-1.42h2.23v-4.74Z" fill="#fff" stroke-width="0"/>
    <path d="m446.86,201.83h1.63v2.21c.57-.81,1.15-1.41,1.75-1.78.83-.5,1.69-.75,2.61-.75.62,0,1.2.12,1.75.36.55.24,1.01.56,1.36.97.35.4.65.98.91,1.73.54-1,1.22-1.76,2.04-2.28.81-.52,1.69-.78,2.63-.78.88,0,1.65.22,2.32.67.67.45,1.17,1.07,1.5,1.87.33.8.49,1.99.49,3.59v6.97h-1.67v-6.97c0-1.37-.1-2.31-.29-2.82-.19-.51-.53-.92-.99-1.24-.47-.31-1.03-.47-1.68-.47-.79,0-1.51.24-2.17.7-.66.47-1.13,1.1-1.44,1.88-.3.78-.45,2.09-.45,3.92v5h-1.63v-6.53c0-1.54-.1-2.59-.29-3.14-.19-.55-.52-.99-1-1.33-.47-.33-1.04-.5-1.69-.5-.75,0-1.46.23-2.12.69s-1.14,1.07-1.46,1.85c-.32.77-.47,1.96-.47,3.55v5.41h-1.63v-12.76Z" fill="#fff" stroke-width="0"/>
    <path d="m479.99,210.36l1.38.73c-.45.89-.97,1.61-1.57,2.16s-1.26.96-2,1.25-1.58.43-2.51.43c-2.07,0-3.69-.68-4.86-2.05-1.17-1.36-1.75-2.91-1.75-4.63,0-1.62.49-3.06,1.48-4.33,1.25-1.61,2.93-2.42,5.03-2.42s3.89.82,5.19,2.48c.92,1.16,1.39,2.62,1.4,4.36h-11.43c.03,1.48.5,2.7,1.41,3.65.91.95,2.04,1.42,3.38,1.42.65,0,1.27-.11,1.89-.34s1.13-.53,1.56-.9c.43-.37.89-.98,1.39-1.81Zm0-3.44c-.22-.88-.54-1.58-.95-2.1-.42-.52-.97-.95-1.65-1.27s-1.41-.48-2.16-.48c-1.25,0-2.32.4-3.21,1.21-.65.59-1.15,1.47-1.48,2.64h9.46Z" fill="#fff" stroke-width="0"/>
    <path d="m492.87,197.09h1.63v4.74h2.59v1.42h-2.59v11.34h-1.63v-11.34h-2.23v-1.42h2.23v-4.74Z" fill="#fff" stroke-width="0"/>
    <path d="m512.2,201.83v12.76h-1.61v-2.19c-.68.84-1.45,1.47-2.31,1.89-.85.42-1.78.63-2.8.63-1.8,0-3.33-.65-4.6-1.96-1.27-1.31-1.91-2.9-1.91-4.78s.64-3.41,1.93-4.72c1.28-1.31,2.83-1.96,4.63-1.96,1.04,0,1.99.22,2.83.67.84.45,1.58,1.11,2.22,2.01v-2.35h1.61Zm-6.53,1.26c-.91,0-1.75.22-2.52.67-.77.45-1.38,1.08-1.84,1.89-.45.81-.68,1.67-.68,2.58s.23,1.76.69,2.58c.46.82,1.08,1.46,1.85,1.92.77.46,1.6.69,2.49.69s1.74-.23,2.54-.68c.8-.45,1.42-1.07,1.85-1.84s.65-1.64.65-2.61c0-1.48-.48-2.71-1.45-3.7-.97-.99-2.16-1.49-3.57-1.49Z" fill="#fff" stroke-width="0"/>
    <path d="m515.86,196.9h1.63v10.08l5.89-5.15h2.4l-6.98,6.09,7.39,6.67h-2.3l-6.39-5.75v5.75h-1.63v-17.69Z" fill="#fff" stroke-width="0"/>
    <path d="m538.56,210.36l1.38.73c-.45.89-.97,1.61-1.57,2.16s-1.26.96-2,1.25-1.58.43-2.51.43c-2.07,0-3.69-.68-4.86-2.05-1.17-1.36-1.75-2.91-1.75-4.63,0-1.62.49-3.06,1.48-4.33,1.25-1.61,2.93-2.42,5.03-2.42s3.89.82,5.19,2.48c.92,1.16,1.39,2.62,1.4,4.36h-11.43c.03,1.48.5,2.7,1.41,3.65.91.95,2.04,1.42,3.38,1.42.65,0,1.27-.11,1.89-.34s1.13-.53,1.56-.9c.43-.37.89-.98,1.39-1.81Zm0-3.44c-.22-.88-.54-1.58-.95-2.1-.42-.52-.97-.95-1.65-1.27s-1.41-.48-2.16-.48c-1.25,0-2.32.4-3.21,1.21-.65.59-1.15,1.47-1.48,2.64h9.46Z" fill="#fff" stroke-width="0"/>
    <path d="m548.66,201.83h1.73l4.36,9.83,4.24-9.83h1.74l-7.57,17.43h-1.73l2.44-5.64-5.21-11.8Z" fill="#fff" stroke-width="0"/>
    <path d="m568.85,201.5c1.96,0,3.58.71,4.86,2.13,1.17,1.3,1.75,2.84,1.75,4.61s-.62,3.34-1.85,4.67c-1.24,1.33-2.82,2-4.76,2s-3.54-.67-4.78-2c-1.24-1.33-1.85-2.89-1.85-4.67s.58-3.3,1.75-4.6c1.29-1.43,2.91-2.15,4.88-2.15Zm0,1.61c-1.36,0-2.53.5-3.5,1.51-.98,1.01-1.46,2.23-1.46,3.66,0,.92.22,1.78.67,2.58s1.05,1.41,1.8,1.85c.76.43,1.59.65,2.49.65s1.74-.22,2.49-.65c.76-.43,1.36-1.05,1.8-1.85.44-.8.67-1.66.67-2.58,0-1.43-.49-2.65-1.47-3.66-.98-1.01-2.14-1.51-3.5-1.51Z" fill="#fff" stroke-width="0"/>
    <path d="m578.28,201.83h1.63v5.96c0,1.45.08,2.46.23,3,.23.78.68,1.4,1.34,1.85s1.44.68,2.36.68,1.68-.22,2.32-.66c.63-.44,1.07-1.02,1.31-1.74.16-.49.25-1.54.25-3.13v-5.96h1.67v6.26c0,1.76-.2,3.09-.61,3.98-.41.89-1.02,1.59-1.84,2.09-.82.5-1.85.76-3.09.76s-2.27-.25-3.1-.76c-.83-.5-1.45-1.21-1.86-2.11-.41-.9-.61-2.26-.61-4.08v-6.15Z" fill="#fff" stroke-width="0"/>
    <path d="m605.65,201.5c1.96,0,3.58.71,4.86,2.13,1.17,1.3,1.75,2.84,1.75,4.61s-.62,3.34-1.85,4.67c-1.24,1.33-2.82,2-4.76,2s-3.54-.67-4.78-2c-1.24-1.33-1.85-2.89-1.85-4.67s.58-3.3,1.75-4.6c1.29-1.43,2.91-2.15,4.88-2.15Zm0,1.61c-1.36,0-2.53.5-3.5,1.51-.98,1.01-1.46,2.23-1.46,3.66,0,.92.22,1.78.67,2.58s1.05,1.41,1.8,1.85c.76.43,1.59.65,2.49.65s1.74-.22,2.49-.65c.76-.43,1.36-1.05,1.8-1.85.44-.8.67-1.66.67-2.58,0-1.43-.49-2.65-1.47-3.66-.98-1.01-2.14-1.51-3.5-1.51Z" fill="#fff" stroke-width="0"/>
    <path d="m615.08,201.83h1.63v5.96c0,1.45.08,2.46.23,3,.23.78.68,1.4,1.34,1.85s1.44.68,2.36.68,1.68-.22,2.32-.66c.63-.44,1.07-1.02,1.31-1.74.16-.49.25-1.54.25-3.13v-5.96h1.67v6.26c0,1.76-.2,3.09-.61,3.98-.41.89-1.02,1.59-1.84,2.09-.82.5-1.85.76-3.09.76s-2.27-.25-3.1-.76c-.83-.5-1.45-1.21-1.86-2.11-.41-.9-.61-2.26-.61-4.08v-6.15Z" fill="#fff" stroke-width="0"/>
    <path d="m631.24,197.09h1.63v4.74h2.59v1.42h-2.59v11.34h-1.63v-11.34h-2.23v-1.42h2.23v-4.74Z" fill="#fff" stroke-width="0"/>
    <path d="m650.54,201.5c1.96,0,3.58.71,4.86,2.13,1.17,1.3,1.75,2.84,1.75,4.61s-.62,3.34-1.85,4.67c-1.24,1.33-2.82,2-4.76,2s-3.54-.67-4.78-2c-1.24-1.33-1.85-2.89-1.85-4.67s.58-3.3,1.75-4.6c1.29-1.43,2.91-2.15,4.88-2.15Zm0,1.61c-1.36,0-2.53.5-3.5,1.51-.98,1.01-1.46,2.23-1.46,3.66,0,.92.22,1.78.67,2.58s1.05,1.41,1.8,1.85c.76.43,1.59.65,2.49.65s1.74-.22,2.49-.65c.76-.43,1.36-1.05,1.8-1.85.44-.8.67-1.66.67-2.58,0-1.43-.49-2.65-1.47-3.66-.98-1.01-2.14-1.51-3.5-1.51Z" fill="#fff" stroke-width="0"/>
    <path d="m665.41,196.9v1.61c-.6-.26-1.11-.39-1.54-.39-.32,0-.58.06-.79.19-.21.13-.34.28-.4.45s-.08.62-.08,1.34v1.72s2.65,0,2.65,0v1.42h-2.65v11.34h-1.64v-11.34h-1.67v-1.42h1.67v-1.99c0-.92.08-1.57.25-1.96s.45-.71.85-.94c.4-.24.88-.36,1.45-.36.53,0,1.16.11,1.9.33Z" fill="#fff" stroke-width="0"/>
    <path d="m675.73,197.09h1.63v4.74h2.59v1.42h-2.59v11.34h-1.63v-11.34h-2.23v-1.42h2.23v-4.74Z" fill="#fff" stroke-width="0"/>
    <path d="m682.4,196.9h1.63v7.21c.66-.88,1.39-1.53,2.18-1.96.79-.43,1.65-.65,2.58-.65s1.79.24,2.53.73c.73.48,1.28,1.14,1.63,1.95.35.82.53,2.1.53,3.84v6.57h-1.63v-6.09c0-1.47-.06-2.45-.17-2.94-.2-.84-.57-1.48-1.1-1.91-.53-.43-1.23-.64-2.09-.64-.99,0-1.87.33-2.66.99-.78.66-1.3,1.47-1.55,2.44-.16.63-.23,1.78-.23,3.47v4.68h-1.63v-17.69Z" fill="#fff" stroke-width="0"/>
    <path d="m697.55,196.58c.37,0,.69.13.95.4s.39.59.39.96-.13.68-.39.95c-.26.27-.58.4-.95.4s-.68-.13-.94-.4c-.26-.27-.39-.58-.39-.95s.13-.7.39-.96.58-.4.94-.4Zm-.81,5.26h1.63v12.76h-1.63v-12.76Z" fill="#fff" stroke-width="0"/>
    <path d="m708.15,203.23l-1.05,1.09c-.87-.85-1.73-1.28-2.56-1.28-.53,0-.98.18-1.36.53-.38.35-.57.76-.57,1.23,0,.41.16.81.47,1.18.31.38.97.83,1.96,1.35,1.22.63,2.04,1.24,2.48,1.83.43.59.64,1.26.64,2.01,0,1.05-.37,1.94-1.1,2.66-.73.73-1.65,1.09-2.75,1.09-.73,0-1.43-.16-2.1-.48s-1.22-.76-1.65-1.33l1.03-1.17c.83.95,1.72,1.42,2.66,1.42.65,0,1.21-.21,1.67-.63.46-.42.69-.92.69-1.49,0-.47-.15-.89-.46-1.26-.3-.36-.99-.81-2.06-1.36-1.15-.59-1.93-1.18-2.34-1.76s-.62-1.24-.62-1.98c0-.97.33-1.77.99-2.42s1.49-.96,2.5-.96c1.17,0,2.35.57,3.53,1.72Z" fill="#fff" stroke-width="0"/>
    <path d="m717.93,214.59v-17.26h3.56c2.57,0,4.43.21,5.59.62,1.67.59,2.97,1.6,3.9,3.05.94,1.45,1.41,3.17,1.41,5.17,0,1.73-.37,3.25-1.11,4.56s-1.71,2.28-2.89,2.91c-1.19.63-2.85.94-4.99.94h-5.46Zm1.65-1.63h1.98c2.37,0,4.02-.15,4.94-.45,1.29-.42,2.31-1.18,3.05-2.28.74-1.1,1.11-2.44,1.11-4.03,0-1.66-.4-3.09-1.2-4.27-.8-1.18-1.92-1.99-3.35-2.43-1.07-.33-2.84-.49-5.31-.49h-1.21v13.94Z" fill="#fff" stroke-width="0"/>
    <path d="m748.1,201.83v12.76h-1.61v-2.19c-.68.84-1.45,1.47-2.31,1.89-.85.42-1.78.63-2.8.63-1.8,0-3.33-.65-4.6-1.96-1.27-1.31-1.91-2.9-1.91-4.78s.64-3.41,1.93-4.72c1.28-1.31,2.83-1.96,4.63-1.96,1.04,0,1.99.22,2.83.67.84.45,1.58,1.11,2.22,2.01v-2.35h1.61Zm-6.53,1.26c-.91,0-1.75.22-2.52.67-.77.45-1.38,1.08-1.84,1.89-.45.81-.68,1.67-.68,2.58s.23,1.76.69,2.58c.46.82,1.08,1.46,1.85,1.92.77.46,1.6.69,2.49.69s1.74-.23,2.54-.68c.8-.45,1.42-1.07,1.85-1.84.43-.77.65-1.64.65-2.61,0-1.48-.48-2.71-1.45-3.7-.97-.99-2.16-1.49-3.57-1.49Z" fill="#fff" stroke-width="0"/>
    <path d="m751.16,201.83h1.67v1.86c.5-.73,1.02-1.28,1.58-1.65.55-.36,1.13-.55,1.73-.55.45,0,.93.14,1.45.43l-.85,1.38c-.34-.15-.63-.22-.86-.22-.54,0-1.07.23-1.58.67-.51.45-.89,1.15-1.16,2.09-.2.73-.3,2.2-.3,4.41v4.32h-1.67v-12.76Z" fill="#fff" stroke-width="0"/>
    <path d="m758.95,196.9h1.63v10.08l5.89-5.15h2.4l-6.98,6.09,7.39,6.67h-2.3l-6.39-5.75v5.75h-1.63v-17.69Z" fill="#fff" stroke-width="0"/>
    <path d="m776.07,211.38l1.46-.88c1.03,1.9,2.21,2.85,3.56,2.85.58,0,1.12-.14,1.62-.4.51-.27.89-.63,1.16-1.09.26-.45.4-.93.4-1.44,0-.58-.19-1.15-.58-1.7-.54-.77-1.52-1.69-2.94-2.77-1.43-1.09-2.32-1.87-2.67-2.36-.61-.81-.91-1.69-.91-2.64,0-.75.18-1.44.54-2.05.36-.62.86-1.11,1.51-1.46.65-.36,1.36-.53,2.12-.53.81,0,1.57.2,2.27.6.7.4,1.45,1.14,2.23,2.22l-1.4,1.07c-.65-.86-1.2-1.43-1.65-1.7-.46-.27-.95-.41-1.49-.41-.69,0-1.26.21-1.7.63-.44.42-.66.94-.66,1.56,0,.38.08.74.23,1.09.16.35.44.74.85,1.15.23.22.96.79,2.22,1.72,1.49,1.1,2.51,2.08,3.06,2.94s.83,1.72.83,2.59c0,1.25-.47,2.34-1.42,3.26-.94.92-2.09,1.38-3.45,1.38-1.04,0-1.99-.28-2.84-.84-.85-.56-1.63-1.5-2.35-2.81Z" fill="#fff" stroke-width="0"/>
    <path d="m789.51,201.83h1.63v2.35c.65-.89,1.39-1.56,2.23-2.01.84-.45,1.78-.67,2.81-.67,1.8,0,3.35.65,4.63,1.96s1.92,2.88,1.92,4.72-.64,3.47-1.91,4.78c-1.27,1.31-2.8,1.96-4.6,1.96-1.01,0-1.94-.21-2.79-.63-.85-.42-1.61-1.05-2.3-1.89v6.86h-1.63v-17.43Zm6.54,1.26c-1.41,0-2.6.5-3.57,1.49-.97.99-1.45,2.23-1.45,3.7,0,.97.22,1.84.65,2.61.43.77,1.05,1.39,1.85,1.84.8.45,1.65.68,2.54.68s1.7-.23,2.47-.69c.77-.46,1.39-1.1,1.85-1.92.46-.82.69-1.68.69-2.58s-.23-1.77-.68-2.58c-.45-.81-1.07-1.44-1.83-1.89-.77-.45-1.61-.67-2.52-.67Z" fill="#fff" stroke-width="0"/>
    <path d="m816.48,210.36l1.38.73c-.45.89-.97,1.61-1.57,2.16s-1.26.96-2,1.25-1.58.43-2.51.43c-2.07,0-3.69-.68-4.86-2.05-1.17-1.36-1.75-2.91-1.75-4.63,0-1.62.49-3.06,1.48-4.33,1.25-1.61,2.93-2.42,5.03-2.42s3.89.82,5.19,2.48c.92,1.16,1.39,2.62,1.4,4.36h-11.43c.03,1.48.5,2.7,1.41,3.65.91.95,2.04,1.42,3.38,1.42.65,0,1.27-.11,1.89-.34s1.13-.53,1.56-.9c.43-.37.89-.98,1.39-1.81Zm0-3.44c-.22-.88-.54-1.58-.95-2.1-.42-.52-.97-.95-1.65-1.27-.69-.32-1.41-.48-2.16-.48-1.25,0-2.32.4-3.21,1.21-.65.59-1.15,1.47-1.48,2.64h9.46Z" fill="#fff" stroke-width="0"/>
    <path d="m821.08,196.9h1.63v17.69h-1.63v-17.69Z" fill="#fff" stroke-width="0"/>
    <path d="m825.86,196.9h1.63v17.69h-1.63v-17.69Z" fill="#fff" stroke-width="0"/>
    <path d="m832.6,212.01c.4,0,.73.14,1.01.42.28.28.42.63.42,1.03s-.14.74-.42,1.03c-.28.29-.62.43-1.01.43s-.74-.14-1.02-.43c-.28-.29-.42-.63-.42-1.03s.14-.75.42-1.03c.28-.28.62-.42,1.02-.42Zm.83-15.11v13.37h-1.69v-13.37h1.69Z" fill="#fff" stroke-width="0"/>
  </g>
  <path d="m473.97,316.86c.31.83.53,1.42.79,2.14,1.07-.66,1.5-1.55,1.6-2.78.39-4.83.85-9.65,1.3-14.47.23-2.53,1.8-4.51,2.78-7.15,1.4,3.46,2.7,6.53,1.92,10.04-.36,1.64.09,2.21,1.88,1.67,3.24-.96,6.51-1.82,9.81-2.51,1.71-.36,2.35-1.21,2.5-2.87.67-7.66,2.89-15.02,4.54-22.49.04-.2.2-.37.61-1.07.15,7.08,1.27,13.59.76,20.19-.31,4.04-.28,4.05,3.69,3.37,1.98-.34,3.96-.76,5.95-1.02,1.33-.18,1.82-.82,1.8-2.13-.02-1.63.49-3.33-.92-4.69-.75-.73-.13-1.51.1-2.22,1.99-6.18,4-12.36,6.06-18.52.34-1.02.39-1.93-.01-2.93-.48-1.21-.91-2.45-.17-3.75.14-.26.11-.74-.04-1.02-2.26-4.29-.64-8.54.13-12.79.2-1.09.74-2.12,1.21-3.44,1.7,2.44,2.99,4.55,2.53,7.52-.62,3.97-.44,4,.87,6.12,2.48-7.29,4.88-14.35,7.29-21.41.14.01.29.02.43.03,1.34,4.98,2.69,9.95,4.01,14.93,2.86,10.82,5.69,21.65,8.54,32.47.29,1.11.79,2.19-.6,3.02-.63.37-.42,1.18-.38,1.82.09,1.66.27,3.32.32,4.98.04,1.44.61,3.06-1.22,4-.26.13-.27.93-.26,1.42.05,3.9.23,7.81.19,11.71-.03,2.5,1.82,1.63,3.02,1.92,1.53.37,1.81-.54,1.83-1.81.02-.84.22-1.67.44-3.16,1.18,3.3,2.2,5.98,3.07,8.71.35,1.11.87,1.52,2.01,1.37,1.21-.16,2.44-.19,3.66-.24,3.3-.13,3.26-.12,4.07-3.44,1.31-5.38,2.67-10.76,4.15-16.72,1.49,4.39,2.8,8.24,4.31,12.66.49-2.08.83-3.54,1.18-4.99.1,0,.21,0,.31,0,.28,2.98.57,5.96.84,8.94.07.79-.06,1.68.61,2.24,3.5,2.95,2.91,6.77,2.31,10.61-.16,1.04-.96,2.28,1.01,2.6.68.11.35.99.37,1.53.03.65-.21,1.16-.96,1.16-1.45,0-1.53.94-1.5,2.05.04,2.02.05,4.05.01,6.07-.02,1.05.35,1.33,1.42,1.26,5.15-.34,5.14-.3,5.54-5.29.12-1.49.16-2.77-.76-4.26-.94-1.53-.22-3.67-.11-5.53.1-1.71,0-3-1.89-3.76-1.42-.57-1.47-3.38-.08-4.06,2.22-1.09,2.66-2.75,2.21-4.92-.28-1.34.06-2.53.63-3.75,2.32-4.97,4.53-9.99,6.83-14.97.89-1.92.61-3.97.89-5.96.09-.6-.19-1.31.62-1.95,1.09,7.32,4.29,13.79,7,20.58.49-2.84.98-5.67,1.47-8.51.13-.05.27-.11.4-.16.97,2.53,1.93,5.06,2.91,7.65,1.17-.61,1.29-1.88,2.3-2.59.67.68.88,1.63,1,2.46.49,3.47,1,6.95,1.15,10.45.07,1.57.38,2.77,1.83,4.21,0-2.93.05-5.45-.02-7.97-.05-1.58.39-3.38,1.84-3.34,1.16.04,2.06,1.8,1.89,3.46-.1.93.09,1.9-.08,2.81-.46,2.53.58,3.81,3.05,4,.57.04,1.4.9,1.66.04.27-.89.18-2.08-.69-2.79-2.11-1.72-2.13-2.13.16-4.12.58-.51.72-1.24.98-1.9,1.51-3.98,2.99-7.97,4.63-12.36,1.19,2.14,2.29,3.95,3.23,5.84,1.46,2.95,3.73,5.52,4.29,8.91.06.39.17.66.61.73,1.62.29,3.71-1.44,3.65-3.07-.16-4.26-.34-8.52-.5-12.79-.04-.95-.04-1.9-1.11-2.37-.78-.35-.58-1.07-.59-1.7-.03-1.21.56-2.66-1.37-3.09-.52-.12-.22-.74-.07-1.12,1.14-2.86,2.29-5.71,3.58-8.93,1.25,2.76,2.36,5.19,3.46,7.62.2-.04.4-.08.59-.12,0-3.28,0-6.56,0-9.83,0-.69-.52-1.03-1.01-1.31-1.69-.96-1.68-2.48-1.09-3.94,2.5-6.15,5.11-12.25,7.83-18.75,1.25,1.73,2.33,3.2,3.39,4.68,1.52,2.11,2.88,4.35,4.57,6.31,1.87,2.17,2.42,4.67,2.55,7.38.03.6.08,1.17-.43,1.59-1.7,1.43-1.52,3.41-.75,4.95,1.21,2.4,1.38,4.83,1.22,7.36-.09,1.41.65,1.87,1.74,1.87,1.31,0,.78-1.15.76-1.79-.14-3.24-.5-6.5,2.1-9.45,1.22,3.97,3.86,7.29,3.36,11.68-.21,1.86-.12,3.76-.01,5.64.13,2.31-.09,4.44-1.84,6.18-.63.63-.77,1.45-.68,2.4.29,3.09.55,6.2.64,9.3.04,1.55.62,1.64,1.83,1.24,2.66-.89,5.35-1.69,8.01-2.57,4.13-1.36,4.12-1.38,6.15-5.28.87-1.66,1.79-3.3,2.63-4.98.48-.97.85-1.44,1.78-.35,1.68,1.98,3.43,3.9,5.22,5.77.74.77.79,1.66.84,2.59.06,1.16.25,2.34,1.71,2.18,1.37-.15.44-1.39.68-2.11.11-.33.07-.71.11-1.19,1.71.55,2.61,1.47,2.84,3.34.65,5.16,1.59,10.28,2.24,15.44.21,1.63.83,2.33,2.38,2.73,3.59.92,3.57,1,3.74,4.57q.2,4.18,4.33,4.51c1.08.08,2.15.12,3.23.19,2.91.17,4.34,1.64,4.48,4.59.19,3.86.23,4.04,4.01,3.21,7.98-1.77,15.72-.25,23.47,1.37,6.76,1.41,13.51,2.86,20.26,4.29.91.19,1.84.33,2.55,1.04,3.65,3.58,6.94,7.46,7.91,12.65.89,4.77,2.54,8.77,7.4,10.69.78.31,1.42.97,2.1,1.51,3.08,2.46,3.34,3.56,1.95,7.24-1.37,3.62-.39,7.17.72,10.6.61,1.89.31,2.21-1.62,2.21-31.73-.1-63.46-.12-95.18-.18-17.27-.03-34.53-.15-51.8-.19-34.25-.06-68.49-.08-102.74-.14-22.52-.04-45.04-.16-67.55-.16-2.17,0-2.44-.62-1.98-2.58,1.24-5.27,2.28-10.59,3.38-15.89.16-.77.48-1.65.27-2.34-1.66-5.34.15-10.45,1.01-15.6.43-2.59.67-4.71-1.71-6.64-2.04-1.66-2.75-4.11-2.32-6.86.19-1.24.63-1.77,1.87-1.8,1.56-.05,3.66.62,4.54-.46.97-1.19.94-3.24,1.27-4.93,1.61-8.37,3.21-16.75,4.77-25.13.21-1.1.6-2.04,1.58-3.08Zm78.09,39.94c1.52-1.18,2.75-2.15,3.99-3.11,2.03-1.59,2.57-3.76,1.49-6.08-.47-1-1.04-1.98-2.28-2.06-1.17-.08-1.78.83-2.35,1.67-1.97,2.89-1.57,6.02-.84,9.58Zm46.94,29.11h-.01c0,3.17,0,6.34,0,9.51,0,.74-.08,1.47,1.03,1.47,1.11,0,1.02-.76,1.02-1.49,0-6.19,0-12.39,0-18.58,0-.66.06-1.3-.92-1.36-1.09-.06-1.11.59-1.11,1.38.01,3.03,0,6.05,0,9.08Zm-19.91-3.53c0-2.96,0-5.92,0-8.88,0-.67.23-1.48-.95-1.52-1.27-.04-1.14.8-1.14,1.59,0,5.85,0,11.69,0,17.54,0,.78-.18,1.65,1.09,1.63,1.34-.02.98-.98.99-1.69.03-2.89.01-5.77.01-8.66Zm-48.39-51.04c.13,1.14.28,2.29.39,3.43.08.84.43,1.43,1.35,1.26,1.03-.19,2.51.73,3.03-.77.86-2.51.92-5.11-.12-7.63-.53-1.28-1.46-1.4-2.64-.77-1.85.98-1.97,2.67-2.01,4.47Zm151.6,1.32c-.03-1.15.05-2.35-.54-3.39-.61-1.08-1.34-2.24-2.79-1.96-1.49.29-2.35,1.44-2.41,2.94-.08,1.93-.07,3.89,1.38,5.45.04.04.14.02.21.04,2.86.85,4.09-.07,4.15-3.08Zm-157.1.45s-.05,0-.08,0c0-.57.11-1.17-.02-1.72-.3-1.27-.26-2.92-2.09-3.05-1.43-.11-2.93,1.58-3.02,3.35-.06,1.14.15,2.28.18,3.43.04,1.5.65,2.11,2.24,2.12,1.65,0,2.58-.47,2.67-2.2.03-.64.08-1.29.13-1.93Zm70.4,52.3c0-3.18.02-6.35-.02-9.53,0-.63.33-1.57-.85-1.61-1.18-.04-.94.87-.94,1.53-.02,6.28-.02,12.56,0,18.85,0,.65-.3,1.56.86,1.61,1.2.05.92-.89.93-1.53.03-3.1.01-6.21.01-9.32Zm-11.45-2.36c0-2.88.03-5.76-.02-8.64-.01-.72.55-1.93-.96-1.88-1.32.04-.85,1.12-.85,1.79-.03,5.83-.01,11.66,0,17.49,0,.74-.32,1.73.98,1.7,1.14-.03.86-.93.86-1.6.01-2.95,0-5.9,0-8.85Zm3.79,1.24c0,3.03,0,6.07,0,9.1,0,.73-.13,1.55,1,1.47.97-.06.83-.81.83-1.45,0-6.07.02-12.13,0-18.2,0-.66.29-1.56-.89-1.56-1.14,0-.94.84-.94,1.54,0,3.03,0,6.07,0,9.1Zm-105.46-50.56c-.09-.92-.12-1.86-.28-2.77-.09-.53-.13-1.29-.83-1.36-.75-.08-1.13.59-1.32,1.2-.57,1.9-.32,3.83-.08,5.76.08.64.56.73,1.11.73.55,0,1.02-.13,1.1-.76.12-.92.2-1.85.29-2.79Zm4.27-.77c-.09-.87-.12-1.81-.3-2.72-.11-.57,0-1.51-.88-1.48-.78.03-1.23.8-1.37,1.49-.37,1.78-.16,3.59-.01,5.38.05.62.45.82,1.04.83.64.01,1.15-.1,1.24-.85.1-.86.19-1.72.29-2.65Zm9.47-1.13c-.05-1,0-1.88-.17-2.71-.13-.62-.02-1.65-1.04-1.59-.79.05-1.22.8-1.34,1.51-.32,1.78-.19,3.58.06,5.37.09.65.53.75,1.08.77.67.02,1.13-.19,1.2-.91.09-.86.15-1.72.21-2.45Zm-24.84,3.01c.04.75.1,1.53.13,2.32.03.7.17,1.24,1.06,1.31.99.07,1.21-.49,1.32-1.28.25-1.79.27-3.57-.12-5.34-.11-.48-.2-1.05-.84-1.08-.57-.03-.86.44-1.12.88-.58.99-.3,2.1-.43,3.2Zm17.68-2.37c.03.57.06,1.29.1,2,.04.73.05,1.44,1.12,1.45.98.01,1.18-.57,1.31-1.33.32-1.79.29-3.57-.16-5.34-.11-.43-.22-.91-.67-1.02-.57-.14-.91.34-1.19.75-.69,1.03-.42,2.22-.51,3.5Zm-10.9,1.84c-.05-.85-.01-1.52-.13-2.14-.14-.71.04-1.83-1.03-1.82-.87,0-1.27.9-1.4,1.71-.24,1.57-.12,3.16.04,4.74.08.77.43,1.15,1.25,1.13.86-.01,1.11-.48,1.14-1.23.04-.86.1-1.72.14-2.38Zm22.87-3.13c-.05-.72-.05-1.51-.17-2.28-.1-.69-.13-1.68-.96-1.7-.84-.03-1.31.86-1.44,1.64-.3,1.7-.18,3.42.06,5.13.1.72.54.91,1.2.89.68-.03,1.06-.35,1.11-1.03.07-.86.13-1.71.19-2.64Zm126.37,17.24h0c0-1.52.01-3.04,0-4.55,0-.55.13-1.26-.76-1.25-.74,0-.68.61-.68,1.1,0,3.25,0,6.5,0,9.76,0,.5,0,1.09.74,1.05.71-.04.7-.6.7-1.11,0-1.66,0-3.32,0-4.99Zm3.17-15.69c0-1.07.02-2.15,0-3.22-.01-.57-.02-1.18-.85-1.21-.82-.04-.93.51-.94,1.12-.02,2.22-.01,4.44-.03,6.66,0,.69.25,1.09.99,1.08.86,0,.82-.64.83-1.2.02-1.07,0-2.15,0-3.22Zm-3.98,1.29s-.01,0-.02,0c0-1.22,0-2.44,0-3.66,0-.56-.15-.97-.82-1-.77-.04-.99.37-.99,1.05,0,2.3,0,4.6,0,6.9,0,.63.32.87.94.87.66,0,.88-.34.88-.92,0-1.08,0-2.16,0-3.23Zm-7.37,2.45s.02,0,.03,0c0-1.15.01-2.3,0-3.45,0-.37-.13-.7-.59-.73-.47-.03-.96.08-.96.6-.03,2.37-.02,4.74.02,7.11,0,.51.42.71.91.66.6-.06.58-.54.59-.95.02-1.08,0-2.16,0-3.24Zm-2.57,1.4s.02,0,.03,0c0-1.08,0-2.15,0-3.23,0-.47-.11-.85-.69-.88-.6-.02-.97.24-.98.86-.02,2.08-.01,4.16,0,6.24,0,.59.31.94.93.91.55-.03.7-.42.7-.88.01-1,0-2.01,0-3.01Zm53.97,8.86s.02,0,.03,0c0-.87,0-1.73,0-2.6,0-.69-.02-1.31-.99-1.28-.84.02-.88.56-.88,1.17,0,1.88.03,3.75.03,5.63,0,.67.16,1.09.97,1.08.89-.01.83-.6.84-1.17.01-.94,0-1.88,0-2.81Zm-135.12-3.27c-.47-.74.77-2.32-1.23-2.35-2.26-.03-1.2,1.71-1.3,2.68-.08.79-.67,2.15,1.13,2.19,2.13.04,1.04-1.56,1.4-2.52Zm-6.66.21s.02,0,.03,0c0,.64-.02,1.29,0,1.93.02.84.66.92,1.21.77,1.94-.53.7-2.12.93-3.2.15-.7.45-1.84-.99-1.86-.63-.01-1.14.08-1.17.86,0,.14-.01.29-.01.43,0,.36,0,.71,0,1.07Zm102.19,3.51s0,0,.01,0c0-1.44.05-2.89-.03-4.33-.03-.54.36-1.53-.65-1.51-.78.02-.52.9-.52,1.41-.03,2.96-.02,5.92.01,8.88,0,.5-.3,1.32.64,1.29.76-.02.51-.75.52-1.2.04-1.51.01-3.03.01-4.54Zm-11.52-27.64c-.07,1.01-.12,1.87,1.34,1.83,1.14-.03,1.73-.27,1.65-1.55-.06-1.06.04-1.97-1.51-1.94-1.29.03-1.64.56-1.47,1.66Zm53.7,27.3c0-1.07.01-2.15,0-3.22,0-.52-.31-.75-.83-.72-.45.03-.59.32-.59.71,0,2.15,0,4.29.02,6.44,0,.5.26.78.8.74.45-.04.59-.35.6-.72.02-1.07,0-2.14,0-3.22Zm5.36,1.48c-.6-.61.67-2.17-1.16-2.17-1.7,0-1.1,1.39-1.08,2.23.02.82-.69,2.23,1.03,2.26,1.79.03.75-1.46,1.21-2.32Zm-203.85-4.6c.16.81.01,1.79,1.36,1.75,1.23-.04,1.41-.87,1.38-1.75-.02-.77-.12-1.72-1.21-1.71-1.04,0-1.52.68-1.53,1.71Zm-1.34.36c-.08-.7.03-1.75-1.18-1.76-.99,0-1.53.67-1.5,1.69.03.86.03,1.76,1.26,1.83,1.19.07,1.42-.68,1.42-1.77Zm21.77-2.76c-.19-.78-.12-1.86-1.34-1.77-.97.07-1.5.76-1.42,1.77.06.85.08,1.68,1.36,1.69,1.29,0,1.28-.81,1.4-1.69Zm162.51-14.81h-.01c0-.57,0-1.14,0-1.71,0-.53-.09-1-.8-.96-.68.03-.81.5-.82,1.02-.02,1.07-.01,2.14.01,3.2.01.53.39.7.86.73.56.03.75-.3.76-.78.01-.5,0-1,0-1.5Zm-176.62,16.29c-.02-.2.09-1.23-1.12-1.26-.99-.02-1.57.62-1.52,1.65.05.82-.06,1.77,1.23,1.82,1.16.04,1.49-.56,1.4-2.22Zm19.1-1.61c-.11-.73-.01-1.76-1.25-1.73-1.02.03-1.49.7-1.43,1.72.05.86.02,1.71,1.29,1.75,1.26.04,1.34-.75,1.39-1.75Zm-12.29,1.19c-.05.96.28,1.58,1.46,1.52,1.13-.06,1.23-.79,1.21-1.63-.02-.91-.17-1.85-1.34-1.77-1.03.07-1.45.81-1.33,1.89Zm-2.1.32c-.19-.69-.08-1.81-1.25-1.8-1.1.02-1.58.81-1.51,1.91.05.82.11,1.55,1.25,1.57,1.15.02,1.49-.59,1.51-1.68Zm158.78-18.94c.15.63-.42,1.73,1.02,1.79,1.38.06,1.22-.91,1.15-1.73-.06-.74.42-1.82-1.02-1.88-1.4-.06-1.15.9-1.15,1.82Zm-2.43,12.21c.35.68-.6,2.16.83,2.16,1.43,0,.56-1.44.75-2.22.11-.47.04-1-.04-1.48-.07-.4-.45-.57-.82-.48-.23.06-.56.27-.6.47-.11.48-.09.99-.12,1.55Zm6.68-46.57c1.01.16,1.38-.32,1.41-1.33.03-1.04-.54-1.15-1.35-1.19-.9-.03-1.33.26-1.3,1.23.03.84.21,1.44,1.25,1.29Zm10.58,51.76c-.03-.74.24-1.61-1.04-1.6-1.07.02-1.05.68-1.04,1.43.02.76-.17,1.58,1.08,1.58,1.12,0,1.02-.69,1-1.41Zm-22.65-15.92c.77.01,1.52.11,1.48-1.02-.03-.73.09-1.49-1.01-1.47-.81.02-1.59-.03-1.57,1.18.01.84.12,1.44,1.1,1.31Zm-50.56,24.76c-.05.46.1,1.09,1.09,1.13,1.22.04,1.08-.83,1.12-1.62.05-.84-.13-1.34-1.15-1.32-1.1.03-1.02.74-1.06,1.81Zm-2.37-6.65c-.12-.7.32-1.71-1.01-1.66-1.12.04-.93.9-.9,1.55.04.69-.34,1.71.92,1.76,1.33.06.87-.98.99-1.66Zm.4-14.77c.04-.74.07-1.44-1.01-1.43-1.06.01-1.04.72-1.04,1.46,0,.68,0,1.25.96,1.3,1.07.06,1.16-.53,1.1-1.33Zm54.47,8.12c.03-.59.03-1.17-.95-1.19-1.19-.02-1.17.71-1.18,1.54-.02.81.31,1.15,1.12,1.18,1.11.03,1.05-.69,1.01-1.53Zm-1.89-29.61c.04-.79.09-1.5-1.01-1.48-.77.01-.99.42-.95,1.08.04.66-.23,1.5.92,1.54.88.03,1.12-.41,1.04-1.14Zm-47.88,27.66c.02-.65.08-1.28-.9-1.31-1.02-.03-1.12.56-1.13,1.35-.01.84.21,1.35,1.18,1.31.98-.05.87-.71.85-1.35Zm-19.66-3.85c1.1,0,1.03-.69,1.04-1.36.01-.73-.13-1.27-1.02-1.28-1.1,0-.97.77-1.01,1.49-.04.82.29,1.22.99,1.15Zm32.65-7.27c-.04-.7.22-1.55-.95-1.5-1.16.05-.82.95-.86,1.57-.04.67-.21,1.51.95,1.46,1.16-.05.78-.93.86-1.53Zm43.17-23.24c.18.46-.31,1.35.79,1.35,1.01,0,.86-.77.83-1.39-.03-.64.3-1.61-.88-1.54-1.02.06-.57.95-.74,1.58Zm-73.61,90.16c-.07-.59.15-1.36-.83-1.41-1.07-.05-1.01.73-1.02,1.45,0,.67,0,1.29.94,1.29,1,0,.84-.72.9-1.33Zm69.62-84.17c0-.6.02-1.16-.83-1.19-.75-.02-1.02.35-1.03,1.03-.01.62.01,1.15.85,1.18.75.03,1.05-.3,1.01-1.02Zm-76.43,58.69c.72.11.9-.35.9-1.04,0-.9-.49-1.07-1.24-1.05-.85.03-.82.59-.83,1.19-.02.82.44.96,1.18.89Zm34.2-26.02c-.01-.61.18-1.33-.8-1.4-.97-.08-1.01.56-.96,1.23.04.57-.25,1.36.78,1.42.93.05,1-.55.98-1.25Zm-16.4-2.89c.19.34-.27,1.11.68,1.18.92.07,1.02-.52,1.02-1.24,0-.67.05-1.33-.93-1.3-.9.03-.7.7-.77,1.36Zm73.48-24.3c.01-.67.02-1.34-.94-1.24-.96.11-.72.86-.75,1.46-.04.63.07,1.11.87,1.12,1.05.01.75-.77.83-1.34Zm-.86-5.71c-.23-.57.38-1.63-.77-1.65-.85-.01-.59.86-.57,1.35.03.63-.44,1.65.59,1.76,1,.1.57-.91.74-1.46Zm-122.18-7.03c-.08-.58.25-1.4-.8-1.42-1.01-.02-.89.73-.88,1.37.02.62-.16,1.38.83,1.43,1.09.05.75-.79.84-1.37Zm-2.58,9.1c.06.52-.2,1.23.71,1.27.69.04.83-.4.81-.97-.02-.63.12-1.4-.85-1.41-.75,0-.63.61-.67,1.1Zm68.04,44.1c.02-.62-.04-1.16-.87-1.14-1.07.04-.72.85-.76,1.42-.04.5-.02,1.04.72,1.04.95,0,.94-.66.91-1.33Zm40.37-62.52c-.23-.56.45-1.6-.75-1.65-1.09-.05-.72.9-.7,1.44.02.62-.44,1.64.69,1.69,1.03.05.59-.91.76-1.48Zm-116.65,25.17c-.04-.53.15-1.21-.71-1.26-.77-.04-.94.45-.9,1.1.05.6-.15,1.35.85,1.35.91,0,.69-.67.75-1.19Zm-19.35,32.14c-.19-.52.37-1.44-.61-1.51-1.03-.07-.7.86-.7,1.41,0,.55-.32,1.46.7,1.43.86-.02.5-.83.61-1.33Zm19.84-43.06c-.15-.48.28-1.32-.6-1.35-1.07-.04-.67.89-.71,1.45-.04.53-.21,1.32.68,1.28.87-.04.52-.85.64-1.37Zm116.17-18.95c-.2-.51.32-1.53-.76-1.39-.91.11-.48,1.04-.56,1.61-.08.54-.18,1.32.65,1.29,1.02-.03.46-.98.67-1.5Zm-85.09,55.25c.56,0,.37-.69.4-1.24.03-.57-.1-1-.81-.97-.69.03-.81.46-.79,1.03.02.58-.01,1.21,1.2,1.18Zm20.22,8.98c-.07-.42.22-1.15-.65-1.25-.64-.07-.92.3-.91.91,0,.55-.18,1.22.68,1.33.67.08.91-.27.88-.99Z" fill="#fff" stroke-width="0"/>
  <g>
    <path d="m89.02,325.13h13.57v46.29h6.37v12.66h-6.37v14.76h-13.32v-14.76h-31.22v-12.66l30.98-46.29Zm.25,46.29v-24.1l-16.34,24.1h16.34Z" fill="#fff" stroke-width="0"/>
    <path d="m139.46,325.13c5.22,0,9.72,1.29,13.5,3.86,3.78,2.58,6.69,6.51,8.75,11.81,2.06,5.3,3.09,12.67,3.09,22.12s-1.05,16.98-3.14,22.29c-2.09,5.31-4.9,9.21-8.44,11.71-3.53,2.49-7.99,3.74-13.37,3.74s-9.91-1.26-13.57-3.76c-3.66-2.51-6.53-6.32-8.61-11.44-2.08-5.12-3.11-12.4-3.11-21.85,0-13.2,2.03-22.76,6.08-28.7,4.51-6.52,10.78-9.78,18.82-9.78Zm.32,13c-2.3,0-4.34.74-6.12,2.22-1.78,1.48-3.14,4.03-4.08,7.65-.94,3.62-1.41,8.91-1.41,15.89,0,9.09,1.08,15.37,3.23,18.84,2.15,3.47,4.94,5.21,8.37,5.21s5.92-1.65,7.86-4.94c2.36-3.98,3.54-10.62,3.54-19.94s-1.06-15.97-3.18-19.55c-2.12-3.58-4.86-5.38-8.23-5.38Z" fill="#fff" stroke-width="0"/>
    <path d="m200.59,325.13h13.57v46.29h6.37v12.66h-6.37v14.76h-13.32v-14.76h-31.22v-12.66l30.98-46.29Zm.25,46.29v-24.1l-16.34,24.1h16.34Z" fill="#fff" stroke-width="0"/>
  </g>
  <g>
    <path d="m481.5,415.85h1.49v6.24h7.57v-6.24h1.49v14.87h-1.49v-7.18h-7.57v7.18h-1.49v-14.87Z" fill="#fff" stroke-width="0"/>
    <path d="m504.7,427.07l1.19.63c-.39.77-.84,1.39-1.36,1.86-.51.47-1.09.83-1.73,1.08-.64.25-1.37.37-2.18.37-1.79,0-3.2-.59-4.21-1.76-1.01-1.18-1.52-2.51-1.52-3.99,0-1.4.43-2.64,1.28-3.73,1.09-1.39,2.54-2.08,4.36-2.08s3.37.71,4.49,2.13c.8,1,1.2,2.26,1.21,3.76h-9.9c.03,1.28.44,2.33,1.22,3.14.79.82,1.76,1.23,2.93,1.23.56,0,1.11-.1,1.63-.29.53-.19.98-.45,1.35-.78s.77-.84,1.2-1.56Zm0-2.96c-.19-.76-.46-1.36-.83-1.81-.36-.45-.84-.81-1.43-1.09-.59-.28-1.22-.41-1.87-.41-1.08,0-2.01.35-2.78,1.04-.57.51-1,1.26-1.29,2.28h8.2Z" fill="#fff" stroke-width="0"/>
    <path d="m519.85,419.72v11h-1.4v-1.89c-.59.72-1.26,1.26-2,1.63s-1.55.55-2.42.55c-1.56,0-2.89-.56-3.99-1.69-1.1-1.13-1.65-2.5-1.65-4.12s.56-2.94,1.67-4.06c1.11-1.13,2.45-1.69,4.01-1.69.9,0,1.72.19,2.45.58.73.38,1.37.96,1.93,1.73v-2.02h1.4Zm-5.66,1.08c-.79,0-1.51.19-2.18.58-.67.39-1.2.93-1.59,1.63s-.59,1.44-.59,2.22.2,1.51.6,2.22c.4.71.93,1.26,1.6,1.65s1.39.59,2.16.59,1.51-.2,2.2-.59c.69-.39,1.23-.92,1.6-1.59.37-.67.56-1.42.56-2.25,0-1.27-.42-2.34-1.26-3.19-.84-.85-1.87-1.28-3.1-1.28Z" fill="#fff" stroke-width="0"/>
    <path d="m534.01,415.48v15.25h-1.39v-1.89c-.59.72-1.26,1.26-2,1.63s-1.55.55-2.42.55c-1.56,0-2.89-.56-3.99-1.69-1.1-1.13-1.65-2.5-1.65-4.12s.56-2.94,1.67-4.06,2.45-1.69,4.01-1.69c.9,0,1.72.19,2.45.58.73.38,1.37.96,1.93,1.73v-6.27h1.39Zm-5.66,5.33c-.79,0-1.51.19-2.18.58s-1.2.93-1.59,1.63-.59,1.44-.59,2.22.2,1.51.6,2.22.93,1.26,1.6,1.65,1.39.59,2.16.59,1.51-.2,2.2-.59c.69-.39,1.23-.92,1.6-1.59.37-.67.56-1.42.56-2.25,0-1.27-.42-2.34-1.26-3.19s-1.87-1.28-3.1-1.28Z" fill="#fff" stroke-width="0"/>
    <path d="m537.31,430.72v-15.25h1.42v6.14c.59-.73,1.26-1.27,1.99-1.63s1.54-.54,2.41-.54c1.56,0,2.88.56,3.98,1.69,1.1,1.13,1.65,2.5,1.65,4.11s-.56,2.95-1.67,4.07c-1.11,1.13-2.45,1.69-4.01,1.69-.9,0-1.71-.19-2.43-.58-.73-.38-1.37-.96-1.93-1.73v2.02h-1.42Zm5.66-1.08c.79,0,1.51-.19,2.18-.58.67-.39,1.2-.93,1.59-1.63.39-.7.59-1.44.59-2.22s-.2-1.53-.59-2.23c-.4-.71-.93-1.26-1.6-1.65-.67-.39-1.38-.59-2.14-.59s-1.51.2-2.2.59c-.7.39-1.23.93-1.6,1.59-.37.67-.56,1.42-.56,2.25,0,1.27.42,2.34,1.26,3.19.84.86,1.87,1.28,3.09,1.28Z" fill="#fff" stroke-width="0"/>
    <path d="m562.3,419.72v11h-1.4v-1.89c-.59.72-1.26,1.26-2,1.63s-1.55.55-2.42.55c-1.56,0-2.89-.56-3.99-1.69-1.1-1.13-1.65-2.5-1.65-4.12s.56-2.94,1.67-4.06c1.11-1.13,2.45-1.69,4.01-1.69.9,0,1.72.19,2.45.58.73.38,1.37.96,1.93,1.73v-2.02h1.4Zm-5.66,1.08c-.79,0-1.51.19-2.18.58-.67.39-1.2.93-1.59,1.63s-.59,1.44-.59,2.22.2,1.51.6,2.22c.4.71.93,1.26,1.6,1.65s1.39.59,2.16.59,1.51-.2,2.2-.59c.69-.39,1.23-.92,1.6-1.59.37-.67.56-1.42.56-2.25,0-1.27-.42-2.34-1.26-3.19-.84-.85-1.87-1.28-3.1-1.28Z" fill="#fff" stroke-width="0"/>
    <path d="m576.16,422.01l-1.12.7c-.97-1.29-2.29-1.93-3.97-1.93-1.34,0-2.45.43-3.34,1.29-.89.86-1.33,1.91-1.33,3.14,0,.8.2,1.56.61,2.26.41.71.97,1.26,1.68,1.65.71.39,1.51.59,2.39.59,1.62,0,2.94-.64,3.96-1.93l1.12.74c-.53.79-1.23,1.41-2.12,1.84-.89.44-1.9.66-3.03.66-1.74,0-3.18-.55-4.33-1.66-1.15-1.11-1.72-2.45-1.72-4.03,0-1.07.27-2.05.8-2.97.54-.91,1.27-1.63,2.21-2.14.94-.51,1.98-.77,3.14-.77.73,0,1.43.11,2.11.33.68.22,1.25.51,1.72.87s.87.81,1.2,1.36Z" fill="#fff" stroke-width="0"/>
    <path d="m578.87,415.48h1.42v8.69l5.1-4.44h2.08l-6.05,5.25,6.4,5.75h-1.99l-5.54-4.95v4.95h-1.42v-15.25Z" fill="#fff" stroke-width="0"/>
    <path d="m596.24,415.64h1.42v4.08h2.24v1.22h-2.24v9.78h-1.42v-9.78h-1.93v-1.22h1.93v-4.08Z" fill="#fff" stroke-width="0"/>
    <path d="m607.23,419.44c1.69,0,3.1.61,4.21,1.84,1.01,1.12,1.52,2.44,1.52,3.97s-.53,2.88-1.61,4.03c-1.07,1.15-2.45,1.72-4.13,1.72s-3.07-.57-4.14-1.72c-1.07-1.15-1.61-2.49-1.61-4.03s.51-2.84,1.52-3.96c1.11-1.23,2.52-1.85,4.22-1.85Zm0,1.39c-1.18,0-2.19.43-3.03,1.3-.85.87-1.27,1.92-1.27,3.15,0,.8.19,1.54.58,2.22.39.69.91,1.22,1.56,1.59.66.37,1.38.56,2.16.56s1.5-.19,2.16-.56c.66-.37,1.18-.9,1.56-1.59.39-.69.58-1.43.58-2.22,0-1.23-.42-2.29-1.27-3.15-.85-.87-1.86-1.3-3.03-1.3Z" fill="#fff" stroke-width="0"/>
    <path d="m621.53,415.85h1.49v6.24h7.57v-6.24h1.49v14.87h-1.49v-7.18h-7.57v7.18h-1.49v-14.87Z" fill="#fff" stroke-width="0"/>
    <path d="m640.67,419.44c1.69,0,3.1.61,4.21,1.84,1.01,1.12,1.52,2.44,1.52,3.97s-.53,2.88-1.61,4.03c-1.07,1.15-2.45,1.72-4.13,1.72s-3.07-.57-4.14-1.72c-1.07-1.15-1.61-2.49-1.61-4.03s.51-2.84,1.52-3.96c1.11-1.23,2.52-1.85,4.22-1.85Zm0,1.39c-1.18,0-2.19.43-3.03,1.3-.85.87-1.27,1.92-1.27,3.15,0,.8.19,1.54.58,2.22.39.69.91,1.22,1.56,1.59.66.37,1.38.56,2.16.56s1.5-.19,2.16-.56c.66-.37,1.18-.9,1.56-1.59.39-.69.58-1.43.58-2.22,0-1.23-.42-2.29-1.27-3.15-.85-.87-1.86-1.3-3.03-1.3Z" fill="#fff" stroke-width="0"/>
    <path d="m649.01,419.72h1.42v1.9c.49-.7,1-1.21,1.52-1.54.72-.43,1.47-.65,2.26-.65.53,0,1.04.1,1.52.31s.87.49,1.17.83c.3.35.57.84.79,1.49.47-.86,1.06-1.52,1.76-1.97.71-.45,1.47-.67,2.28-.67.76,0,1.43.19,2.01.58.58.38,1.01.92,1.3,1.61.28.69.42,1.72.42,3.09v6h-1.45v-6c0-1.18-.08-1.99-.25-2.43s-.46-.8-.86-1.07c-.41-.27-.89-.4-1.46-.4-.69,0-1.31.2-1.88.61-.57.4-.98.94-1.24,1.62-.26.67-.39,1.8-.39,3.38v4.31h-1.42v-5.63c0-1.33-.08-2.23-.25-2.7-.17-.48-.45-.86-.86-1.14-.41-.29-.9-.43-1.47-.43-.65,0-1.27.2-1.84.59-.57.39-.99.93-1.26,1.59-.27.67-.41,1.69-.41,3.06v4.66h-1.42v-11Z" fill="#fff" stroke-width="0"/>
    <path d="m677.7,427.07l1.19.63c-.39.77-.84,1.39-1.36,1.86-.51.47-1.09.83-1.73,1.08-.64.25-1.37.37-2.18.37-1.79,0-3.2-.59-4.21-1.76-1.01-1.18-1.52-2.51-1.52-3.99,0-1.4.43-2.64,1.28-3.73,1.09-1.39,2.54-2.08,4.36-2.08s3.37.71,4.49,2.13c.8,1,1.2,2.26,1.21,3.76h-9.9c.03,1.28.44,2.33,1.22,3.14.79.82,1.76,1.23,2.93,1.23.56,0,1.11-.1,1.63-.29.53-.19.98-.45,1.35-.78s.77-.84,1.2-1.56Zm0-2.96c-.19-.76-.46-1.36-.83-1.81-.36-.45-.84-.81-1.43-1.09-.59-.28-1.22-.41-1.87-.41-1.08,0-2.01.35-2.78,1.04-.57.51-1,1.26-1.29,2.28h8.2Z" fill="#fff" stroke-width="0"/>
    <path d="m681.92,419.72h1.42v2.02c.56-.77,1.2-1.35,1.93-1.73.73-.38,1.54-.58,2.43-.58,1.56,0,2.9.56,4.01,1.69,1.11,1.13,1.67,2.48,1.67,4.06s-.55,2.99-1.65,4.12c-1.1,1.13-2.43,1.69-3.98,1.69-.88,0-1.68-.18-2.41-.55-.73-.36-1.4-.91-1.99-1.63v5.91h-1.42v-15.02Zm5.66,1.08c-1.22,0-2.25.43-3.09,1.28s-1.26,1.92-1.26,3.19c0,.83.19,1.59.56,2.25.37.67.91,1.2,1.6,1.59.7.39,1.43.59,2.2.59s1.47-.2,2.14-.59,1.2-.94,1.6-1.65.6-1.45.6-2.22-.2-1.52-.59-2.22-.92-1.24-1.59-1.63c-.67-.39-1.39-.58-2.18-.58Z" fill="#fff" stroke-width="0"/>
    <path d="m706.98,419.72v11h-1.4v-1.89c-.59.72-1.26,1.26-2,1.63s-1.55.55-2.42.55c-1.56,0-2.89-.56-3.99-1.69-1.1-1.13-1.65-2.5-1.65-4.12s.56-2.94,1.67-4.06c1.11-1.13,2.45-1.69,4.01-1.69.9,0,1.72.19,2.45.58.73.38,1.37.96,1.93,1.73v-2.02h1.4Zm-5.66,1.08c-.79,0-1.51.19-2.18.58-.67.39-1.2.93-1.59,1.63s-.59,1.44-.59,2.22.2,1.51.6,2.22c.4.71.93,1.26,1.6,1.65s1.39.59,2.16.59,1.51-.2,2.2-.59c.69-.39,1.23-.92,1.6-1.59.37-.67.56-1.42.56-2.25,0-1.27-.42-2.34-1.26-3.19-.84-.85-1.87-1.28-3.1-1.28Z" fill="#fff" stroke-width="0"/>
    <path d="m719.65,419.72h1.42v8.77c0,1.54-.13,2.67-.4,3.39-.37,1.01-1.01,1.79-1.93,2.34-.92.55-2.02.82-3.31.82-.94,0-1.79-.13-2.54-.4-.75-.27-1.36-.62-1.84-1.07s-.91-1.11-1.3-1.97h1.54c.42.73.96,1.27,1.62,1.62s1.48.53,2.46.53,1.78-.18,2.44-.54c.66-.36,1.14-.81,1.42-1.36s.43-1.42.43-2.63v-.57c-.53.67-1.18,1.19-1.95,1.55-.77.36-1.59.54-2.45.54-1.01,0-1.96-.25-2.85-.75s-1.58-1.18-2.06-2.03c-.49-.85-.73-1.78-.73-2.8s.25-1.97.76-2.85c.51-.88,1.21-1.58,2.1-2.09.89-.51,1.84-.77,2.83-.77.82,0,1.59.17,2.3.51s1.4.9,2.06,1.68v-1.91Zm-4.18,1.08c-.8,0-1.55.19-2.23.58-.69.39-1.23.92-1.62,1.61s-.59,1.42-.59,2.22c0,1.21.4,2.2,1.21,2.99.81.79,1.86,1.18,3.14,1.18s2.35-.39,3.14-1.17c.79-.78,1.19-1.81,1.19-3.08,0-.83-.18-1.57-.55-2.22-.36-.65-.88-1.16-1.55-1.54-.67-.38-1.39-.57-2.15-.57Z" fill="#fff" stroke-width="0"/>
    <path d="m733.36,427.07l1.19.63c-.39.77-.84,1.39-1.36,1.86-.51.47-1.09.83-1.73,1.08-.64.25-1.37.37-2.18.37-1.79,0-3.2-.59-4.21-1.76-1.01-1.18-1.52-2.51-1.52-3.99,0-1.4.43-2.64,1.28-3.73,1.09-1.39,2.54-2.08,4.36-2.08s3.37.71,4.49,2.13c.8,1,1.2,2.26,1.21,3.76h-9.9c.03,1.28.44,2.33,1.22,3.14.79.82,1.76,1.23,2.93,1.23.56,0,1.11-.1,1.63-.29.53-.19.98-.45,1.35-.78s.77-.84,1.2-1.56Zm0-2.96c-.19-.76-.46-1.36-.83-1.81-.36-.45-.84-.81-1.43-1.09-.59-.28-1.22-.41-1.87-.41-1.08,0-2.01.35-2.78,1.04-.57.51-1,1.26-1.29,2.28h8.2Z" fill="#fff" stroke-width="0"/>
  </g>
</svg>