<?xml version="1.0" encoding="UTF-8"?>
<svg id="Layer_1" data-name="Layer 1" xmlns="http://www.w3.org/2000/svg" viewBox="0 0 275.01 268.34">
  <path d="M2,128.83c.68-4.95,1.27-9.92,2.06-14.85,3.12-19.37,10.54-37.02,21.62-53.15,16.76-24.39,39.23-41.47,67.05-51.39,18.88-6.73,38.4-8.63,58.35-6.76,24.85,2.33,47.2,11.1,67.15,25.94,24.28,18.06,40.69,41.73,49.34,70.7,5.55,18.6,6.75,37.62,4.07,56.8-5.27,37.85-24.06,67.78-54.17,90.8-10.92,8.35-23.21,14.32-36.22,18.77-5.97,2.04-10.01-.82-10.04-7.11-.05-11.73.01-23.46-.03-35.19-.02-5.84-.35-11.7-2.89-17.07-1.49-3.14-3.56-6-5.38-9,4.94-.92,10.32-1.61,15.52-2.95,13.8-3.56,26.16-9.68,34.54-21.79,6.09-8.81,8.91-18.91,10.16-29.43.94-7.98,1.22-15.99-.32-23.96-1.71-8.86-5.53-16.68-11.46-23.46-1.07-1.23-1.25-2.24-.73-3.75,3.9-11.14,2.39-22.05-1.74-32.77-.25-.66-1.37-1.28-2.16-1.39-4.71-.67-9.16.66-13.3,2.61-6.83,3.22-13.44,6.93-20.21,10.29-1.21.6-2.88.98-4.14.66-21.12-5.28-42.2-5.28-63.32.02-1.25.31-3.01-.04-4.11-.74-8.6-5.47-17.68-9.84-27.57-12.45-.17-.04-.34-.11-.51-.15-6.32-1.33-7.44-.62-9.26,5.59-2.81,9.63-3.32,19.22.05,28.84.27.78.02,2.13-.52,2.74-11.37,12.92-13.94,28.22-12.39,44.73.91,9.66,3.19,18.91,7.52,27.61,6.11,12.26,16.43,19.74,28.92,24.06,7.42,2.57,15.37,3.64,23.08,5.39.41.09.82.14.89.15-1.97,3.59-4.01,7.13-5.87,10.76-.63,1.23-1.1,2.67-1.16,4.03-.11,2.86-1.61,4.15-4.2,4.85-8.58,2.32-17.09,3.82-25.3-1.21-4.31-2.64-7.52-6.35-10.05-10.67-3.9-6.65-9.38-11.52-16.78-13.71-2.74-.81-5.87-.59-8.79-.42-1.78.1-2.36,1.56-1.16,3.06,1.2,1.5,2.39,3.21,3.99,4.14,7.27,4.21,11.35,10.89,14.61,18.23,1.86,4.19,3.62,8.38,7.16,11.57,5.69,5.11,12.56,7.04,19.91,7.37,6.38.29,12.78.06,19.59.06,0,3.84-.02,8.31,0,12.79.02,3.44.13,6.88.12,10.32-.02,6.34-4.2,9.41-10.2,7.37-20.02-6.82-37.64-17.57-52.41-32.74-14.32-14.71-25.27-31.6-32.02-51.1-3.83-11.05-6.05-22.42-6.93-34.07-.08-1.04-.27-2.06-.42-3.1,0-5.29,0-10.58,0-15.88Z" fill="none" stroke="#fff" stroke-miterlimit="10" stroke-width="4"/>
</svg>