<?xml version="1.0" encoding="UTF-8"?>
<svg id="Layer_1" data-name="Layer 1" xmlns="http://www.w3.org/2000/svg" viewBox="0 0 257.16 256.98">
  <path d="M255.13,122.7c0-12.39-.05-24.79-.08-37.19.03-8.88.02-17.76.09-26.65.03-4.07-.59-8.06-1.38-12.02-2.2-10.96-7.74-20.21-15.5-28.04-7.31-7.37-15.97-12.47-26.31-14.83-5.05-1.15-10.02-1.95-15.16-1.95-45.63,0-91.26,0-136.89-.03-6.78,0-13.39.92-19.71,3.38C18.92,13.65,6.35,29.07,2.69,51.61c-1.21,7.46-.46,15.01-.5,22.52-.07,12.68.03,25.36.05,38.03-.02.22-.06.43-.06.64,0,28.81,0,57.62,0,86.43,0,6.08,1.3,11.95,3.3,17.63,3.71,10.53,9.98,19.25,18.88,26.1,9.9,7.62,21.09,11.88,33.53,11.86,46.65-.07,93.31.03,139.96.16,4.68.01,9.26-.59,13.81-1.7,25.2-6.12,43.43-28.8,43.48-55.34.06-25.08,0-50.17,0-75.25ZM221.87,101.33c0,22.06,0,44.13-.06,66.2-.03,8.18-1.68,15.99-5.3,23.43-6.18,12.7-15.87,21.44-28.72,27.05-5.32,2.32-10.86,3.36-16.46,3.43-28.44.34-56.88.37-85.32.06-8.49-.09-16.31-2.78-23.65-7.08-5.24-3.06-9.81-6.82-13.78-11.35-7.87-8.99-12.17-19.52-12.81-31.41-.68-12.52-.13-25.07-.28-37.6-.01-1.07-.07-2.14-.11-3.22.02-13.47,0-26.93.05-40.39.06-17.76,6.75-32.45,20.67-43.6,9.73-7.8,21.01-11.51,33.44-11.54,26.07-.06,52.14-.27,78.21.04,20.64.25,36.46,9.46,47.12,27.27,2.06,3.45,3.4,7.21,4.86,10.92,0-.02,0-.03,0-.05.13,1.26.38,2.48.91,3.64,1.57,8,1.22,16.11,1.22,24.19Z" fill="none" stroke="#fff" stroke-miterlimit="10" stroke-width="4"/>
  <path d="M204.64,87.82c-.02-6.4-1.89-12.36-5.37-17.78-.27-.62-.44-1.32-1.32-1.35-.27-.57-.53-1.14-.8-1.71-.34-.43-.69-.86-1.03-1.29-.38-.43-.77-.87-1.15-1.31-7-7.54-15.73-11.34-25.95-11.37-26.8-.1-53.6-.04-80.4-.05-20.04,0-35.99,15.96-35.99,36.02,0,15.77-.02,31.53,0,47.3.02,11.89.1,23.78.16,35.68.01,3.01.79,5.86,1.73,8.72,4.63,14.13,18.63,24.4,33.87,24.34,25.43-.09,50.86,0,76.29-.01,3.22,0,6.43.15,9.65-.37,17.94-2.92,30.15-17.71,30.3-34.5.25-27.44.09-54.88,0-82.31ZM128.36,177.28c-26.22-.03-48.26-21.79-48-48.67.26-26.5,21.64-47.96,48.12-47.92,27.09.03,48.46,21.44,48.41,48.45.2,25.9-21.1,48.18-48.54,48.14ZM178.44,89.98c-6.18-.06-11.13-5.09-11.09-11.28.03-6.14,5.16-11.26,11.22-11.2,6.35.06,11.29,5.03,11.28,11.33-.02,6.32-5.02,11.21-11.4,11.15Z" fill="none" stroke="#fff" stroke-miterlimit="10" stroke-width="4"/>
  <path d="M160.01,129.05c.06,17.31-14.24,31.41-31.5,31.3-17.16-.11-31.29-14.2-31.23-31.17.06-17.73,14.16-31.81,31.88-31.56,16.94.24,30.78,13.75,30.85,31.43Z" fill="none" stroke="#fff" stroke-miterlimit="10" stroke-width="4"/>
</svg>