<?xml version="1.0" encoding="UTF-8"?>
<svg id="Layer_1" data-name="Layer 1" xmlns="http://www.w3.org/2000/svg" viewBox="0 0 274.48 274.35">
  <path d="M135.47,2c1.23,0,2.47,0,3.7,0,.46.1.92.25,1.38.28,3.95.29,7.9.48,11.84.85,8.08.77,15.98,2.45,23.75,4.79,7.55,2.28,14.86,5.18,21.91,8.73,7.06,3.55,13.74,7.7,20.08,12.41,8.19,6.09,15.54,13.09,22.18,20.85,6.35,7.43,11.76,15.5,16.35,24.1,3.55,6.65,6.63,13.52,8.81,20.74,1.68,5.55,3.23,11.15,4.4,16.82,1.02,4.94,1.55,9.99,2.07,15.02.39,3.76.57,7.55.55,11.33-.03,3.82-.41,7.64-.68,11.45-.5,6.99-1.69,13.88-3.4,20.67-2.89,11.49-7.19,22.43-12.96,32.79-6.18,11.12-13.73,21.2-22.74,30.16-10.54,10.49-22.49,19.02-35.85,25.57-11,5.39-22.48,9.4-34.56,11.47-5.88,1.01-11.84,1.8-17.79,2.17-5.38.33-10.8.06-16.2-.16-7.98-.32-15.84-1.64-23.56-3.58-11.39-2.87-22.27-7.11-32.57-12.8-11.53-6.36-21.92-14.21-31.14-23.61-14.36-14.62-24.83-31.64-31.51-51.01-4.47-12.95-6.81-26.27-7.2-39.95-.03-.91-.21-1.81-.32-2.71,0-.7,0-1.41,0-2.11.09-.38.25-.75.27-1.13.3-4.39.49-8.78.87-13.16.55-6.32,1.85-12.52,3.44-18.65,3.18-12.3,8.03-23.91,14.49-34.85,7.32-12.38,16.44-23.26,27.23-32.78,9.34-8.24,19.67-14.99,30.88-20.35,9.15-4.37,18.7-7.65,28.63-9.85,8.4-1.87,16.88-2.92,25.47-3.18.73-.02,1.45-.21,2.17-.32ZM151.96,119.38c0-3.76-.05-7.5.03-11.24.03-1.29-.37-1.62-1.63-1.61-9.82.05-19.64.06-29.46,0-1.4,0-1.68.46-1.65,1.74.09,5.06.12,10.13.12,15.19,0,16.73-.03,33.47-.05,50.2-.01,9.6-.03,19.2-.06,28.8,0,1.74-.02,1.78,1.73,1.78,9.64,0,19.29,0,28.93,0q2.05,0,2.05-2c0-17.7,0-35.41,0-53.11,0-1.09.13-2.19.2-3.28.39-6.34,6.3-14.63,14.97-15.52,8.11-.83,14.3,2.31,16.96,10.52,1.1,3.4,1.48,6.89,1.49,10.41.05,17.09.04,34.18,0,51.26,0,1.32.36,1.75,1.71,1.75,9.78-.05,19.55-.05,29.33,0,1.34,0,1.71-.39,1.71-1.73-.04-18.85,0-37.7-.04-56.55-.01-7.29-1.31-14.36-4.22-21.08-2.87-6.6-7.22-11.96-13.46-15.66-6.77-4.01-14.18-5.37-21.94-4.99-7.77.38-14.78,2.81-20.5,8.22-2.22,2.1-4.11,4.55-6.2,6.89ZM101.73,155.3c0-15.63,0-31.27,0-46.9q0-1.83-1.76-1.83c-9.73,0-19.46,0-29.2,0-1.74,0-1.74,0-1.74,1.72,0,31.4,0,62.8,0,94.2,0,1.75,0,1.76,1.76,1.76,9.69,0,19.38,0,29.06,0,1.87,0,1.87,0,1.87-1.92,0-15.68,0-31.36,0-47.03ZM85.32,93.54c.7,0,1.41.04,2.11,0,6.8-.45,13.46-4.49,15.72-11.87,2.43-7.95-1.29-16.74-8.82-20.19-4.56-2.09-9.3-2.34-14.18-1.18-13.07,3.09-16.48,17.72-9.65,26.6,3.72,4.84,8.84,6.76,14.82,6.65Z" fill="none" stroke="#fff" stroke-miterlimit="10" stroke-width="4"/>
</svg>