<?xml version="1.0" encoding="UTF-8"?>
<svg id="Layer_1" data-name="Layer 1" xmlns="http://www.w3.org/2000/svg" viewBox="0 0 267.24 267.2">
  <path d="M265.24,126.23v14.8c-.12.73-.26,1.46-.37,2.19-1.06,6.88-1.61,13.89-3.25,20.63-8.2,33.75-26.98,60.25-55.75,79.59-16.67,11.2-35.08,18.03-55.03,20.6-3.25.42-6.5.78-9.75,1.16h-14.8c-.67-.12-1.33-.31-2-.36-9.88-.65-19.56-2.41-28.99-5.41-33.02-10.52-58.46-30.72-75.75-60.72C3.13,170.22-1.77,139.53,4.86,107.34c6.82-33.1,24.11-59.89,51.41-79.78C87.48,4.82,122.36-2.74,160.21,4.85c29.34,5.89,53.73,20.67,73.24,43.3,16.92,19.63,27.14,42.4,30.61,68.13.45,3.31.79,6.63,1.18,9.94ZM197.14,211.24c0-1.03,0-1.91,0-2.79,0-41.92,0-83.85-.02-125.77,0-1.64-.05-3.31-.35-4.91-2.42-12.92-13.09-21.83-26.26-21.85-32.74-.04-65.48-.02-98.22-.01-.65,0-1.3.06-1.93.09v155.24h126.77Z" fill="none" stroke="#fff" stroke-miterlimit="10" stroke-width="4"/>
  <path d="M107.03,138.8c0-7.07-.51-14.02.14-20.86.7-7.33,5.3-12.23,12.19-14.91,1.06-.41,1.67-.2,2.42.71,6.68,8.02,17.17,8.01,23.86-.04.77-.93,1.39-1.03,2.43-.67,7.17,2.46,12.27,9.35,12.37,16.99.08,6.21.02,12.43.02,18.78h-53.43Z" fill="none" stroke="#fff" stroke-miterlimit="10" stroke-width="4"/>
  <path d="M86.12,163.16c0-2.71-.05-5.38.06-8.04.02-.42.71-.93,1.19-1.17.38-.19.94-.04,1.42-.04,29.92,0,59.84,0,89.77,0h2.57v9.25h-95.01Z" fill="none" stroke="#fff" stroke-miterlimit="10" stroke-width="4"/>
  <path d="M86.1,186.22h95.06v9.26c-.8.04-1.53.11-2.26.11-30.14,0-60.28-.01-90.43.04-1.88,0-2.54-.51-2.41-2.41.15-2.24.04-4.5.04-7Z" fill="none" stroke="#fff" stroke-miterlimit="10" stroke-width="4"/>
  <path d="M148.53,86.53c-.02,8.15-6.57,14.62-14.83,14.62-8.34,0-14.89-6.53-14.86-14.81.03-8.11,6.67-14.69,14.83-14.7,8.21-.02,14.87,6.65,14.85,14.88Z" fill="none" stroke="#fff" stroke-miterlimit="10" stroke-width="4"/>
</svg>