<?xml version="1.0" encoding="UTF-8"?>
<svg id="Layer_1" data-name="Layer 1" xmlns="http://www.w3.org/2000/svg" viewBox="0 0 373.18 331.52">
  <path d="m.29,187.08c19.11,11.03,37.45,21.52,55.63,32.27,1.37.81,2.23,3.53,2.25,5.37.19,13.66.06,27.33.12,41,.05,12.94,7.96,20.81,20.91,20.89,6.33.04,12.67.12,19-.01,11.07-.23,19.42-7.53,19.74-18.47.51-17.32.3-34.66.05-51.99-.03-1.74-2.14-3.93-3.85-5.08-35.88-24.25-71.8-48.43-107.83-72.46-3.46-2.31-4.69-4.74-4.73-8.87C1.23,98.05.64,66.4.06,34.74-.3,14.74,13.85.09,33.91.05c36.16-.07,72.33-.07,108.49,0,19.19.04,33.73,13.84,33.89,32.67.26,31.16.08,62.33.07,93.49,0,.78-.15,1.56-.28,2.85-1.76-.88-3.07-1.47-4.3-2.18-16.59-9.55-33.14-19.19-49.8-28.62-2.84-1.6-3.98-3.36-3.89-6.65.23-8.83.15-17.66.06-26.5-.14-13.21-8.1-21.09-21.27-21.16-6.17-.03-12.33-.09-18.5.01-12.05.21-19.99,8.15-20.08,20.19-.1,12.33.12,24.67-.1,37-.06,3.49,1.22,5.33,4.08,7.11,36.63,22.76,73.15,45.7,109.8,68.43,3.25,2.02,4.4,4.15,4.38,7.96-.15,37.33-.07,74.66-.1,111.99-.02,20.87-13.94,34.81-34.82,34.83-35.66.04-71.33.04-106.99,0-20.6-.03-34.5-13.93-34.52-34.55-.05-34.66-.02-69.33,0-103.99,0-1.62.15-3.24.27-5.87Z" fill="#fff" stroke-width="0"/>
  <path d="m372.81,133.35c-19.05-9.97-37.35-19.47-55.53-29.22-1.29-.69-2.28-3.15-2.31-4.8-.2-11.66-.06-23.33-.12-35-.06-13.1-7.74-20.7-20.89-20.76-6.5-.03-13-.09-19.5.03-10.57.18-18.27,7.3-19.33,17.79-.17,1.65-.15,3.33-.15,4.99,0,66.34.16,132.67-.14,199.01-.06,13.64,8.58,23.77,22.85,22.67,5.97-.46,12,.01,17.99-.1,10.91-.21,19.02-8.03,19.12-18.95.19-21.83.12-43.67-.05-65.5-.01-1.88-1.22-4.11-2.55-5.55-9.69-10.5-19.55-20.85-29.93-31.85h90.57c.09,1.6.28,3.34.28,5.08.02,42,.06,84,0,126.01-.03,20.29-14.02,34.27-34.27,34.3-35.83.05-71.67.06-107.5,0-20.55-.03-34.55-14.03-34.56-34.58-.03-87.34-.03-174.67,0-262.01,0-20.9,13.95-34.83,34.8-34.85,36-.03,72-.08,108,.02,19.12.05,33.37,13.97,33.49,33.03.21,32.17.06,64.33.05,96.5,0,.95-.15,1.91-.31,3.76Z" fill="#fff" stroke-width="0"/>
</svg>